<svg width="50" height="50" viewBox="0 0 50 50" fill="none" xmlns="http://www.w3.org/2000/svg">
<rect x="0.5" width="48" height="48" rx="9.81669" fill="white"/>
<path d="M18.0254 7.69922C18.7532 7.69922 19.4237 8.09391 19.777 8.73023L22.2276 13.1445C22.5484 13.7225 22.5635 14.4216 22.2678 15.0129L19.907 19.7347C19.907 19.7347 20.5912 23.252 23.4545 26.1153C26.3178 28.9786 29.8234 29.6509 29.8234 29.6509L34.5443 27.2905C35.136 26.9946 35.8356 27.0099 36.4138 27.3314L40.8406 29.7926C41.4764 30.1461 41.8706 30.8162 41.8706 31.5435V36.6257C41.8706 39.2138 39.4666 41.0831 37.0144 40.2556C31.9779 38.5562 24.1599 35.3205 19.2046 30.3651C14.2494 25.4099 11.0136 17.5919 9.3142 12.5554C8.48677 10.1032 10.356 7.69922 12.9441 7.69922H18.0254Z" fill="#F47521" stroke="#F47521" stroke-width="2.40409" stroke-linejoin="round"/>
</svg>
