<svg width="16" height="17" viewBox="0 0 16 17" fill="none" xmlns="http://www.w3.org/2000/svg">
<path d="M11.3333 14.5001C10.2308 14.4991 9.14555 14.2266 8.17333 13.7067L7.87333 13.5401C5.8005 12.4256 4.10113 10.7262 2.98667 8.65339L2.82 8.35339C2.28655 7.37564 2.00475 6.28052 2 5.16672V4.72005C1.99986 4.54411 2.03454 4.36988 2.10205 4.20741C2.16956 4.04493 2.26855 3.89743 2.39333 3.77339L3.52 2.64672C3.57399 2.59232 3.63976 2.55105 3.71223 2.52611C3.7847 2.50117 3.86194 2.49323 3.93797 2.50289C4.01401 2.51256 4.0868 2.53957 4.15073 2.58185C4.21466 2.62413 4.26801 2.68054 4.30667 2.74672L5.80667 5.32005C5.88043 5.44743 5.90997 5.59563 5.89067 5.74155C5.87138 5.88747 5.80434 6.0229 5.7 6.12672L4.44 7.38672C4.38904 7.43712 4.35569 7.5026 4.34488 7.57345C4.33407 7.64431 4.34639 7.71675 4.38 7.78005L4.61333 8.22005C5.45136 9.77236 6.72618 11.0449 8.28 11.8801L8.72 12.1201C8.7833 12.1537 8.85575 12.166 8.9266 12.1552C8.99745 12.1444 9.06293 12.111 9.11333 12.0601L10.3733 10.8001C10.4772 10.6957 10.6126 10.6287 10.7585 10.6094C10.9044 10.5901 11.0526 10.6196 11.18 10.6934L13.7533 12.1934C13.8195 12.232 13.8759 12.2854 13.9182 12.3493C13.9605 12.4133 13.9875 12.486 13.9972 12.5621C14.0068 12.6381 13.9989 12.7154 13.9739 12.7878C13.949 12.8603 13.9077 12.9261 13.8533 12.9801L12.7267 14.1067C12.6026 14.2315 12.4551 14.3305 12.2926 14.398C12.1302 14.4655 11.9559 14.5002 11.78 14.5001H11.3333Z" fill="#EAEAEA"/>
</svg>
