<svg width="18" height="20" viewBox="0 0 18 20" fill="none" xmlns="http://www.w3.org/2000/svg">
<path fill-rule="evenodd" clip-rule="evenodd" d="M12.25 3C12.25 1.48122 13.4812 0.25 15 0.25C16.5188 0.25 17.75 1.48122 17.75 3C17.75 4.51878 16.5188 5.75 15 5.75C13.4812 5.75 12.25 4.51878 12.25 3ZM3 14.25C1.48122 14.25 0.25 15.4812 0.25 17C0.25 18.5188 1.48122 19.75 3 19.75C4.25878 19.75 5.32002 18.9043 5.64648 17.75H13.5C15.8472 17.75 17.75 15.8472 17.75 13.5C17.75 11.1528 15.8472 9.25 13.5 9.25H4.5C2.98122 9.25 1.75 8.01878 1.75 6.5C1.75 4.98122 2.98122 3.75 4.5 3.75H7.18934L6.46967 4.46967C6.17678 4.76256 6.17678 5.23744 6.46967 5.53033C6.76256 5.82322 7.23744 5.82322 7.53033 5.53033L9.53033 3.53033C9.82322 3.23744 9.82322 2.76256 9.53033 2.46967L7.53033 0.46967C7.23744 0.176777 6.76256 0.176777 6.46967 0.46967C6.17678 0.762563 6.17678 1.23744 6.46967 1.53033L7.18934 2.25H4.5C2.15279 2.25 0.25 4.15279 0.25 6.5C0.25 8.84721 2.15279 10.75 4.5 10.75H13.5C15.0188 10.75 16.25 11.9812 16.25 13.5C16.25 15.0188 15.0188 16.25 13.5 16.25H5.64648C5.32002 15.0957 4.25878 14.25 3 14.25Z" fill="#F47521"/>
</svg>
