<svg width="16" height="17" viewBox="0 0 16 17" fill="none" xmlns="http://www.w3.org/2000/svg">
<path d="M8.00004 1.83328C6.77199 1.83366 5.5679 2.17324 4.5206 2.81457C3.47331 3.45589 2.62351 4.37404 2.06494 5.46772C1.50638 6.5614 1.26076 7.78811 1.35519 9.01253C1.44961 10.237 1.8804 11.4115 2.60005 12.4066L2.00005 14.2333C1.97984 14.2917 1.97663 14.3547 1.99079 14.4149C2.00495 14.4751 2.0359 14.53 2.08005 14.5733C2.12348 14.6173 2.17809 14.6486 2.238 14.6639C2.29791 14.6791 2.36085 14.6778 2.42005 14.6599L4.32004 14.0466C5.18659 14.6244 6.17647 14.9911 7.2103 15.1174C8.24414 15.2437 9.29318 15.126 10.2733 14.7737C11.2535 14.4214 12.1374 13.8444 12.8544 13.0889C13.5713 12.3334 14.1012 11.4205 14.4017 10.4232C14.7022 9.42601 14.7648 8.37224 14.5846 7.34643C14.4044 6.32062 13.9864 5.3513 13.364 4.51619C12.7416 3.68107 11.9323 3.00339 11.0008 2.53748C10.0693 2.07157 9.04156 1.83039 8.00004 1.83328ZM11.88 11.2466C11.7431 11.4937 11.552 11.7066 11.3211 11.8694C11.0902 12.0322 10.8255 12.1406 10.5467 12.1866C10.2 12.2599 9.74004 12.3199 8.21338 11.6866C6.85612 11.0303 5.70363 10.0161 4.88004 8.75328C4.42811 8.17715 4.15258 7.48254 4.08671 6.75328C4.07632 6.45039 4.13037 6.14875 4.2453 5.86833C4.36023 5.5879 4.53341 5.33508 4.75338 5.12661C4.93854 4.96738 5.17588 4.88194 5.42004 4.88661H5.64004C5.83338 4.88661 5.93338 4.88661 6.06671 5.21328C6.20005 5.53994 6.61338 6.54661 6.66004 6.65328C6.69506 6.70579 6.71645 6.76621 6.72227 6.82906C6.72809 6.89191 6.71816 6.95522 6.69338 7.01328C6.63621 7.12618 6.56201 7.22961 6.47338 7.31994C6.38004 7.43328 6.28004 7.51994 6.18671 7.63994C6.12267 7.68681 6.0788 7.75622 6.06395 7.83418C6.0491 7.91213 6.06438 7.99282 6.10671 8.05994C6.40052 8.55415 6.76428 9.00325 7.18671 9.39328C7.64307 9.81171 8.1747 10.1397 8.75338 10.3599C8.82934 10.3969 8.91479 10.4096 8.99822 10.3965C9.08165 10.3834 9.15907 10.345 9.22004 10.2866C9.40731 10.0756 9.58099 9.85294 9.74004 9.61994C9.78857 9.54137 9.86449 9.48358 9.95315 9.45772C10.0418 9.43186 10.1369 9.43978 10.22 9.47994C10.4 9.53994 11.3534 10.0133 11.5534 10.1066C11.7534 10.1999 11.88 10.2533 11.9267 10.3333C11.9966 10.6361 11.9805 10.9525 11.88 11.2466Z" fill="#EAEAEA"/>
</svg>
