<svg width="16" height="17" viewBox="0 0 16 17" fill="none" xmlns="http://www.w3.org/2000/svg">
<path d="M13.3334 3.16663H2.66671C2.31309 3.16663 1.97395 3.3071 1.7239 3.55715C1.47385 3.8072 1.33337 4.14634 1.33337 4.49996V12.5C1.33337 12.8536 1.47385 13.1927 1.7239 13.4428C1.97395 13.6928 2.31309 13.8333 2.66671 13.8333H13.3334C13.687 13.8333 14.0261 13.6928 14.2762 13.4428C14.5262 13.1927 14.6667 12.8536 14.6667 12.5V4.49996C14.6667 4.14634 14.5262 3.8072 14.2762 3.55715C14.0261 3.3071 13.687 3.16663 13.3334 3.16663ZM13.3334 7.83329L9.10004 10.8C8.77753 11.0254 8.39354 11.1463 8.00004 11.1463C7.60655 11.1463 7.22255 11.0254 6.90004 10.8L2.66671 7.83329V6.43329L7.56671 9.86663C7.69395 9.95494 7.84515 10.0023 8.00004 10.0023C8.15493 10.0023 8.30613 9.95494 8.43337 9.86663L13.3334 6.43329V7.83329Z" fill="#EAEAEA"/>
</svg>
