<svg width="18" height="16" viewBox="0 0 18 16" fill="none" xmlns="http://www.w3.org/2000/svg">
<path fill-rule="evenodd" clip-rule="evenodd" d="M6.43584 1.78571C5.37375 1.78571 4.51276 2.64917 4.51276 3.71429C4.51276 4.77941 5.37375 5.64286 6.43584 5.64286C7.49793 5.64286 8.35892 4.77941 8.35892 3.71429C8.35892 2.64917 7.49793 1.78571 6.43584 1.78571ZM3.23071 3.71429C3.23071 1.93908 4.6657 0.5 6.43584 0.5C8.20598 0.5 9.64097 1.93908 9.64097 3.71429C9.64097 5.48949 8.20598 6.92857 6.43584 6.92857C4.6657 6.92857 3.23071 5.48949 3.23071 3.71429Z" fill="#9A9AA0"/>
<path fill-rule="evenodd" clip-rule="evenodd" d="M0.666626 3.71438C0.666626 3.35934 0.953623 3.07152 1.30765 3.07152H3.87175C4.22578 3.07152 4.51276 3.35925 4.51276 3.71429C4.51276 4.06933 4.22578 4.35724 3.87175 4.35724H1.30765C0.953623 4.35724 0.666626 4.06942 0.666626 3.71438Z" fill="#9A9AA0"/>
<path fill-rule="evenodd" clip-rule="evenodd" d="M8.35892 3.71429C8.35892 3.35925 8.64588 3.07161 8.99991 3.07161L16.6922 3.07161C17.0462 3.07161 17.3332 3.35943 17.3332 3.71447C17.3332 4.06951 17.0462 4.35733 16.6922 4.35733L8.99991 4.35733C8.64588 4.35733 8.35892 4.06933 8.35892 3.71429Z" fill="#9A9AA0"/>
<path fill-rule="evenodd" clip-rule="evenodd" d="M11.564 10.3571C12.6261 10.3571 13.4871 11.2205 13.4871 12.2857C13.4871 13.3508 12.6261 14.2142 11.564 14.2142C10.502 14.2142 9.64096 13.3508 9.64096 12.2857C9.64096 11.2205 10.502 10.3571 11.564 10.3571ZM14.7692 12.2857C14.7692 10.5105 13.3342 9.07137 11.564 9.07137C9.7939 9.07137 8.35891 10.5105 8.35891 12.2857C8.35891 14.0609 9.7939 15.4999 11.564 15.4999C13.3342 15.4999 14.7692 14.0609 14.7692 12.2857Z" fill="#9A9AA0"/>
<path fill-rule="evenodd" clip-rule="evenodd" d="M17.3333 12.2858C17.3333 11.9307 17.0463 11.6429 16.6922 11.6429H14.1281C13.7741 11.6429 13.4871 11.9306 13.4871 12.2857C13.4871 12.6407 13.7741 12.9286 14.1281 12.9286H16.6922C17.0463 12.9286 17.3333 12.6408 17.3333 12.2858Z" fill="#9A9AA0"/>
<path fill-rule="evenodd" clip-rule="evenodd" d="M9.64096 12.2857C9.64096 11.9306 9.354 11.643 8.99997 11.643H1.30767C0.953642 11.643 0.666644 11.9308 0.666644 12.2858C0.666644 12.6409 0.953642 12.9287 1.30767 12.9287L8.99997 12.9287C9.354 12.9287 9.64096 12.6407 9.64096 12.2857Z" fill="#9A9AA0"/>
</svg>
