<svg width="40" height="40" viewBox="0 0 40 40" fill="none" xmlns="http://www.w3.org/2000/svg">
<path fill-rule="evenodd" clip-rule="evenodd" d="M11.2501 15C11.2501 14.5858 11.5859 14.25 12.0001 14.25H28.0001C28.4143 14.25 28.7501 14.5858 28.7501 15C28.7501 15.4142 28.4143 15.75 28.0001 15.75H12.0001C11.5859 15.75 11.2501 15.4142 11.2501 15ZM11.2501 20C11.2501 19.5858 11.5859 19.25 12.0001 19.25L28.0001 19.25C28.4143 19.25 28.7501 19.5858 28.7501 20C28.7501 20.4142 28.4143 20.75 28.0001 20.75L12.0001 20.75C11.5859 20.75 11.2501 20.4142 11.2501 20ZM12.0001 24.25C11.5859 24.25 11.2501 24.5858 11.2501 25C11.2501 25.4142 11.5859 25.75 12.0001 25.75H28.0001C28.4143 25.75 28.7501 25.4142 28.7501 25C28.7501 24.5858 28.4143 24.25 28.0001 24.25H12.0001Z" fill="#515151"/>
</svg>
