<svg width="50" height="50" viewBox="0 0 50 50" fill="none" xmlns="http://www.w3.org/2000/svg">
<rect x="0.5" width="48" height="48" rx="9.81669" fill="white"/>
<path d="M42.6699 17.2806C40.5225 7.83203 32.2805 3.57812 25.0407 3.57812C25.0407 3.57812 25.0407 3.57812 25.0203 3.57812C17.8009 3.57812 9.53853 7.81157 7.39112 17.2601C4.99831 27.8131 11.461 36.7504 17.3101 42.3745C19.4779 44.4606 22.2593 45.5036 25.0407 45.5036C27.8221 45.5036 30.6035 44.4606 32.7509 42.3745C38.6 36.7504 45.0627 27.8335 42.6699 17.2806ZM25.0407 27.5268C21.4822 27.5268 18.5985 24.6431 18.5985 21.0846C18.5985 17.526 21.4822 14.6424 25.0407 14.6424C28.5993 14.6424 31.4829 17.526 31.4829 21.0846C31.4829 24.6431 28.5993 27.5268 25.0407 27.5268Z" fill="#F47521"/>
</svg>
