<?xml version="1.0" encoding="UTF-8"?>
<!DOCTYPE svg PUBLIC "-//W3C//DTD SVG 1.1//EN" "http://www.w3.org/Graphics/SVG/1.1/DTD/svg11.dtd">
<svg xmlns="http://www.w3.org/2000/svg" version="1.1" width="940px" height="1600px" style="shape-rendering:geometricPrecision; text-rendering:geometricPrecision; image-rendering:optimizeQuality; fill-rule:evenodd; clip-rule:evenodd" xmlns:xlink="http://www.w3.org/1999/xlink">
<g><path style="opacity:1" fill="#014f63" d="M 437.5,-0.5 C 458.5,-0.5 479.5,-0.5 500.5,-0.5C 514.625,1.10706 528.792,3.10706 543,5.5C 553.939,6.35274 564.772,8.35274 575.5,11.5C 577.515,12.9238 579.848,13.5905 582.5,13.5C 673.937,37.4508 751.104,84.4508 814,154.5C 867.948,216.73 903.615,288.397 921,369.5C 923.261,380.735 924.761,392.068 925.5,403.5C 925.527,409.051 926.194,414.384 927.5,419.5C 928.436,423.735 928.769,428.069 928.5,432.5C 927.655,454.336 926.989,476.336 926.5,498.5C 926.313,503.845 925.98,509.178 925.5,514.5C 921.159,557.554 910.326,598.887 893,638.5C 806.885,821.228 720.385,1003.73 633.5,1186C 683.167,1186.33 732.833,1186.67 782.5,1187C 828.628,1194.48 861.795,1219.32 882,1261.5C 885.616,1269.73 888.95,1278.06 892,1286.5C 908.485,1354.43 924.318,1422.43 939.5,1490.5C 939.5,1498.83 939.5,1507.17 939.5,1515.5C 930.785,1561.21 903.785,1589.21 858.5,1599.5C 599.167,1599.5 339.833,1599.5 80.5,1599.5C 37.4161,1589.75 10.4161,1563.42 -0.5,1520.5C -0.5,1509.17 -0.5,1497.83 -0.5,1486.5C 14.6754,1419.13 30.5087,1351.79 47,1284.5C 56.9649,1252.68 75.1316,1226.85 101.5,1207C 117.783,1195.87 135.783,1189.2 155.5,1187C 205.167,1186.67 254.833,1186.33 304.5,1186C 218.287,1005.07 132.454,823.905 47,642.5C 29.8495,603.539 18.6829,562.872 13.5,520.5C 13.3916,515.29 12.7249,510.29 11.5,505.5C -0.291099,367.185 40.2089,246.851 133,144.5C 194.693,79.8943 268.86,36.2276 355.5,13.5C 358.152,13.5905 360.485,12.9238 362.5,11.5C 387.248,5.87523 412.248,1.87523 437.5,-0.5 Z"/></g>
<g><path style="opacity:0.096" fill="#000000" d="M 362.5,11.5 C 360.485,12.9238 358.152,13.5905 355.5,13.5C 357.515,12.0762 359.848,11.4095 362.5,11.5 Z"/></g>
<g><path style="opacity:0.086" fill="#000200" d="M 575.5,11.5 C 578.152,11.4095 580.485,12.0762 582.5,13.5C 579.848,13.5905 577.515,12.9238 575.5,11.5 Z"/></g>
<g><path style="opacity:1" fill="#9f663e" d="M 442.5,36.5 C 436.699,37.6818 430.699,38.3484 424.5,38.5C 430.261,36.9431 436.261,36.2764 442.5,36.5 Z"/></g>
<g><path style="opacity:1" fill="#f9751f" d="M 886.5,390.5 C 885.931,394.329 886.598,397.663 888.5,400.5C 899.533,486.152 886.366,567.819 849,645.5C 738,879.167 627,1112.83 516,1346.5C 499.988,1369.08 478.488,1376.91 451.5,1370C 435.817,1364.32 424.651,1353.82 418,1338.5C 303.674,1096.87 189.341,855.201 75,613.5C 26.3638,480.031 38.6972,352.698 112,231.5C 177.392,132.505 268.226,70.0055 384.5,44C 397.734,41.3106 411.067,39.4773 424.5,38.5C 430.699,38.3484 436.699,37.6818 442.5,36.5C 576.722,31.5526 689.888,77.5526 782,174.5C 837.923,236.02 872.757,308.02 886.5,390.5 Z"/></g>
<g><path style="opacity:1" fill="#fdc5b0" d="M 482.5,219.5 C 469.488,219.463 456.488,219.797 443.5,220.5C 451.282,219.033 459.282,218.366 467.5,218.5C 472.678,218.501 477.678,218.834 482.5,219.5 Z"/></g>
<g><path style="opacity:1" fill="#fffefe" d="M 482.5,219.5 C 569.294,226.634 634.128,267.967 677,343.5C 708.299,406.966 711.966,471.966 688,538.5C 652.751,621.575 590.585,670.575 501.5,685.5C 481.845,686.311 462.178,686.645 442.5,686.5C 441.833,686.5 441.167,686.5 440.5,686.5C 433.451,684.245 426.118,682.912 418.5,682.5C 340.991,663.828 285.824,618.161 253,545.5C 223.058,468.936 229.391,395.603 272,325.5C 313.286,264.743 370.453,229.743 443.5,220.5C 456.488,219.797 469.488,219.463 482.5,219.5 Z"/></g>
<g><path style="opacity:1" fill="#c86c35" d="M 886.5,390.5 C 887.785,393.589 888.451,396.922 888.5,400.5C 886.598,397.663 885.931,394.329 886.5,390.5 Z"/></g>
<g><path style="opacity:0.071" fill="#000102" d="M 925.5,403.5 C 926.957,408.598 927.624,413.931 927.5,419.5C 926.194,414.384 925.527,409.051 925.5,403.5 Z"/></g>
<g><path style="opacity:0.721" fill="#134a5c" d="M 928.5,432.5 C 929.924,454.678 929.591,476.678 927.5,498.5C 927.167,498.5 926.833,498.5 926.5,498.5C 926.989,476.336 927.655,454.336 928.5,432.5 Z"/></g>
<g><path style="opacity:0.085" fill="#000000" d="M 926.5,498.5 C 926.833,498.5 927.167,498.5 927.5,498.5C 927.745,504.084 927.078,509.417 925.5,514.5C 925.98,509.178 926.313,503.845 926.5,498.5 Z"/></g>
<g><path style="opacity:0.082" fill="#000302" d="M 11.5,505.5 C 12.7249,510.29 13.3916,515.29 13.5,520.5C 11.9692,515.75 11.3025,510.75 11.5,505.5 Z"/></g>
<g><path style="opacity:1" fill="#ffccaf" d="M 418.5,682.5 C 426.118,682.912 433.451,684.245 440.5,686.5C 432.89,685.989 425.556,684.656 418.5,682.5 Z"/></g>
<g><path style="opacity:1" fill="#ffd5bc" d="M 501.5,685.5 C 481.881,689.017 462.215,689.35 442.5,686.5C 462.178,686.645 481.845,686.311 501.5,685.5 Z"/></g>
</svg>
