<svg width="34" height="34" viewBox="0 0 34 34" fill="none" xmlns="http://www.w3.org/2000/svg">
<path d="M2.99995 13.8502C2.42595 13.8502 1.94995 13.3742 1.94995 12.8002V9.3002C1.94995 5.2402 5.25395 1.9502 9.29995 1.9502H12.8C13.374 1.9502 13.85 2.4262 13.85 3.0002C13.85 3.5742 13.374 4.0502 12.8 4.0502H9.29995C6.40195 4.0502 4.04995 6.4022 4.04995 9.3002V12.8002C4.04995 13.3742 3.57395 13.8502 2.99995 13.8502Z" fill="#F47521"/>
<path d="M30.9999 13.8502C30.4259 13.8502 29.9499 13.3742 29.9499 12.8002V9.3002C29.9499 6.4022 27.5979 4.0502 24.6999 4.0502H21.1999C20.6259 4.0502 20.1499 3.5742 20.1499 3.0002C20.1499 2.4262 20.6259 1.9502 21.1999 1.9502H24.6999C28.7459 1.9502 32.0499 5.2402 32.0499 9.3002V12.8002C32.0499 13.3742 31.5739 13.8502 30.9999 13.8502Z" fill="#F47521"/>
<path d="M24.6999 32.0503H22.5999C22.0259 32.0503 21.5499 31.5743 21.5499 31.0003C21.5499 30.4263 22.0259 29.9503 22.5999 29.9503H24.6999C27.5979 29.9503 29.9499 27.5983 29.9499 24.7003V22.6003C29.9499 22.0263 30.4259 21.5503 30.9999 21.5503C31.5739 21.5503 32.0499 22.0263 32.0499 22.6003V24.7003C32.0499 28.7603 28.7459 32.0503 24.6999 32.0503Z" fill="#F47521"/>
<path d="M12.8 32.0504H9.29995C5.25395 32.0504 1.94995 28.7604 1.94995 24.7004V21.2004C1.94995 20.6264 2.42595 20.1504 2.99995 20.1504C3.57395 20.1504 4.04995 20.6264 4.04995 21.2004V24.7004C4.04995 27.5984 6.40195 29.9504 9.29995 29.9504H12.8C13.374 29.9504 13.85 30.4264 13.85 31.0004C13.85 31.5744 13.374 32.0504 12.8 32.0504Z" fill="#F47521"/>
<path d="M12.8 15.9501H9.99998C8.02598 15.9501 6.84998 14.7741 6.84998 12.8001V10.0001C6.84998 8.0261 8.02598 6.8501 9.99998 6.8501H12.8C14.774 6.8501 15.95 8.0261 15.95 10.0001V12.8001C15.95 14.7741 14.774 15.9501 12.8 15.9501ZM9.99998 8.9501C9.17398 8.9501 8.94998 9.1741 8.94998 10.0001V12.8001C8.94998 13.6261 9.17398 13.8501 9.99998 13.8501H12.8C13.626 13.8501 13.85 13.6261 13.85 12.8001V10.0001C13.85 9.1741 13.626 8.9501 12.8 8.9501H9.99998Z" fill="#F47521"/>
<path d="M23.9999 15.9501H21.1999C19.2259 15.9501 18.0499 14.7741 18.0499 12.8001V10.0001C18.0499 8.0261 19.2259 6.8501 21.1999 6.8501H23.9999C25.9739 6.8501 27.1499 8.0261 27.1499 10.0001V12.8001C27.1499 14.7741 25.9739 15.9501 23.9999 15.9501ZM21.1999 8.9501C20.3739 8.9501 20.1499 9.1741 20.1499 10.0001V12.8001C20.1499 13.6261 20.3739 13.8501 21.1999 13.8501H23.9999C24.8259 13.8501 25.0499 13.6261 25.0499 12.8001V10.0001C25.0499 9.1741 24.8259 8.9501 23.9999 8.9501H21.1999Z" fill="#F47521"/>
<path d="M12.8 27.1503H9.99998C8.02598 27.1503 6.84998 25.9743 6.84998 24.0003V21.2003C6.84998 19.2263 8.02598 18.0503 9.99998 18.0503H12.8C14.774 18.0503 15.95 19.2263 15.95 21.2003V24.0003C15.95 25.9743 14.774 27.1503 12.8 27.1503ZM9.99998 20.1503C9.17398 20.1503 8.94998 20.3743 8.94998 21.2003V24.0003C8.94998 24.8263 9.17398 25.0503 9.99998 25.0503H12.8C13.626 25.0503 13.85 24.8263 13.85 24.0003V21.2003C13.85 20.3743 13.626 20.1503 12.8 20.1503H9.99998Z" fill="#F47521"/>
<path d="M23.9999 27.1503H21.1999C19.2259 27.1503 18.0499 25.9743 18.0499 24.0003V21.2003C18.0499 19.2263 19.2259 18.0503 21.1999 18.0503H23.9999C25.9739 18.0503 27.1499 19.2263 27.1499 21.2003V24.0003C27.1499 25.9743 25.9739 27.1503 23.9999 27.1503ZM21.1999 20.1503C20.3739 20.1503 20.1499 20.3743 20.1499 21.2003V24.0003C20.1499 24.8263 20.3739 25.0503 21.1999 25.0503H23.9999C24.8259 25.0503 25.0499 24.8263 25.0499 24.0003V21.2003C25.0499 20.3743 24.8259 20.1503 23.9999 20.1503H21.1999Z" fill="#F47521"/>
</svg>
