<svg width="45" height="44" viewBox="0 0 45 44" fill="none" xmlns="http://www.w3.org/2000/svg">
<rect width="44" height="44" transform="translate(0.666748)" fill="white"/>
<path d="M22.6668 3.66609C19.2896 3.66714 15.9783 4.60099 13.0983 6.36464C10.2182 8.12828 7.88127 10.6532 6.34522 13.6608C4.80917 16.6684 4.13373 20.0419 4.39339 23.409C4.65305 26.7762 5.83773 30.0062 7.81675 32.7428L6.16675 37.7661C6.11118 37.9268 6.10235 38.0999 6.14129 38.2655C6.18024 38.431 6.26535 38.582 6.38675 38.7011V38.7011C6.5062 38.8221 6.65638 38.9082 6.82113 38.9502C6.98588 38.9922 7.15896 38.9885 7.32175 38.9394L12.5468 37.2528C14.9298 38.8417 17.6519 39.8502 20.495 40.1975C23.338 40.5447 26.2229 40.221 28.9183 39.2522C31.6136 38.2835 34.0446 36.6967 36.0161 34.6191C37.9877 32.5415 39.445 30.0309 40.2713 27.2885C41.0977 24.5461 41.2699 21.6482 40.7744 18.8273C40.2788 16.0063 39.1292 13.3407 37.4177 11.0441C35.7061 8.74752 33.4803 6.88391 30.9187 5.60265C28.3571 4.3214 25.5309 3.65815 22.6668 3.66609V3.66609ZM33.3368 29.5528C32.9601 30.2322 32.4346 30.8177 31.7996 31.2653C31.1646 31.713 30.4366 32.0112 29.6701 32.1378C28.7168 32.3394 27.4518 32.5044 23.2534 30.7628C19.521 28.9578 16.3516 26.1688 14.0868 22.6961C12.8439 21.1117 12.0862 19.2016 11.9051 17.1961C11.8765 16.3632 12.0251 15.5336 12.3412 14.7625C12.6573 13.9913 13.1335 13.2961 13.7384 12.7228C14.2476 12.2849 14.9003 12.0499 15.5718 12.0628H16.1768C16.7084 12.0628 16.9834 12.0628 17.3501 12.9611C17.7168 13.8594 18.8534 16.6278 18.9818 16.9211C19.0781 17.0655 19.1369 17.2316 19.1529 17.4045C19.1689 17.5773 19.1416 17.7514 19.0734 17.9111C18.9162 18.2216 18.7122 18.506 18.4684 18.7544C18.2118 19.0661 17.9368 19.3044 17.6801 19.6344C17.504 19.7633 17.3833 19.9542 17.3425 20.1686C17.3016 20.3829 17.3437 20.6048 17.4601 20.7894C18.268 22.1485 19.2684 23.3835 20.4301 24.4561C21.6851 25.6068 23.1471 26.5089 24.7384 27.1144C24.9473 27.2159 25.1823 27.251 25.4117 27.215C25.6412 27.1789 25.8541 27.0735 26.0218 26.9128C26.5367 26.3325 27.0144 25.7202 27.4518 25.0794C27.5852 24.8634 27.794 24.7044 28.0378 24.6333C28.2816 24.5622 28.5431 24.584 28.7718 24.6944C29.2668 24.8594 31.8884 26.1611 32.4384 26.4178C32.9884 26.6744 33.3368 26.8211 33.4651 27.0411C33.6573 27.8739 33.6129 28.7439 33.3368 29.5528V29.5528Z" fill="#F47521"/>
</svg>
