<svg width="272" height="246" viewBox="0 0 272 246" fill="none" xmlns="http://www.w3.org/2000/svg">
<g filter="url(#filter0_d_4559_28844)">
<path fill-rule="evenodd" clip-rule="evenodd" d="M234.692 86.2018C234.692 86.2018 234.612 85.6502 234.514 84.7883C233.456 85.6502 232.375 86.8799 232.243 88.3853C231.956 91.4423 228.92 91.7123 224.746 91.4423C220.584 91.1607 216.427 80.6166 216.427 78.956C216.427 77.3011 222.257 69.268 225.58 69.268C227.73 69.268 230.812 71.5722 233.261 73.2098C233.157 71.9974 233.14 71.0723 233.192 70.693C233.491 68.9003 235.583 48.3177 231.99 46.2318C228.414 44.1402 224.838 23.2588 223.642 21.1673C222.452 19.0929 209.31 20.2824 207.815 17.8862C206.354 15.5476 195.276 17.823 195.034 15.582C193.315 18.1218 191.383 20.9144 190.412 22.0809C188.423 24.4655 182.852 22.8681 182.058 26.8444C181.253 30.8265 174.498 34.8143 171.313 34.8143C168.122 34.8143 165.736 40.3708 165.736 43.9564C165.736 47.5247 159.378 52.3112 154.197 52.3112C149.029 52.3112 150.621 56.6783 149.023 62.252C147.442 67.8085 145.056 68.2165 136.294 68.2165C127.55 68.2165 127.142 67.412 120.363 63.0564C113.602 58.6779 111.619 66.6248 111.228 70.1989C110.825 73.7787 101.667 80.9441 98.8842 84.116C96.1016 87.3051 89.3348 84.9262 85.3621 84.9262C81.3778 84.9262 82.9704 81.3463 82.9704 78.956C82.9704 76.5713 84.9596 78.163 85.7473 75.7669C86.5521 73.3937 82.9704 64.6309 81.3721 60.6603C80.6994 58.9365 77.9226 57.5229 75.002 56.4714C75.002 79.0249 75.002 103.279 75.002 105.606C75.002 109.979 67.8327 111.962 66.2574 114.358C64.6591 116.737 54.7015 114.754 49.142 114.754C43.571 114.754 44.7668 109.181 41.9784 105.21C39.2073 101.239 34.4182 106.394 34.4182 109.181C34.4182 111.284 31.923 110.893 28.6517 110.571C33.0154 117.461 36.8156 125.517 38.8049 132.056C41.9842 142.606 49.7399 152.529 51.7349 158.689C53.7183 164.866 55.9145 170.635 51.7349 171.221C47.5552 171.819 47.5552 175.405 51.9246 182.168C56.3055 188.919 52.5225 192.907 56.3055 193.694C60.0827 194.493 58.8926 196.866 61.8707 197.079C64.8661 197.274 67.0565 200.256 69.0458 202.842C71.0235 205.434 75.6114 205.434 77.7903 202.245C79.9808 199.067 86.7476 198.073 93.7099 198.073C100.678 198.073 99.2867 195.079 106.048 193.091C112.809 191.12 120.967 190.913 126.739 192.913C132.511 194.89 136.892 193.091 139.675 191.327C142.458 189.528 147.827 194.108 148.236 189.528C148.626 184.949 154.197 185.736 159.378 185.736C164.546 185.736 177.079 177.588 187.031 168.245C196.989 158.902 213.495 138.411 219.072 129.068C224.637 119.73 233.795 111.766 238.372 107.595C241.781 104.469 243.765 93.4649 244.707 85.4491C240.01 85.3744 234.692 86.2018 234.692 86.2018ZM193.19 130.655C193.19 133.844 186.027 129.856 184.445 133.033C182.847 136.223 181.249 140.193 181.249 140.193L175.678 139.394L167.727 128.258C167.727 128.258 174.085 119.519 175.678 116.329C177.27 113.152 187.613 107.578 189.212 110.761C190.793 113.939 197.956 117.915 197.956 121.093C197.968 124.288 193.19 127.465 193.19 130.655Z" fill="#00455C"/>
<path d="M234.692 86.2018L233.877 86.3207L233.997 87.1436L234.819 87.0158L234.692 86.2018ZM234.514 84.7883L235.333 84.6954L235.163 83.1973L233.994 84.1497L234.514 84.7883ZM232.243 88.3853L233.063 88.4625L233.064 88.4574L232.243 88.3853ZM224.746 91.4423L224.691 92.2641L224.693 92.2643L224.746 91.4423ZM233.261 73.2098L232.803 73.8946L234.227 74.847L234.082 73.1398L233.261 73.2098ZM233.192 70.693L232.379 70.5575L232.377 70.5696L232.376 70.5817L233.192 70.693ZM231.99 46.2318L231.574 46.9429L231.577 46.9442L231.99 46.2318ZM223.642 21.1673L224.357 20.7584L224.357 20.7573L223.642 21.1673ZM207.815 17.8862L208.514 17.4502L208.513 17.4499L207.815 17.8862ZM195.034 15.582L195.853 15.4938L195.612 13.2583L194.352 15.1203L195.034 15.582ZM190.412 22.0809L191.044 22.6086L191.045 22.6081L190.412 22.0809ZM182.058 26.8444L182.866 27.0076L182.866 27.0056L182.058 26.8444ZM149.023 62.252L148.231 62.0249L148.231 62.0266L149.023 62.252ZM120.363 63.0564L119.916 63.7479L119.918 63.7495L120.363 63.0564ZM111.228 70.1989L112.046 70.2909L112.047 70.2884L111.228 70.1989ZM98.8842 84.116L98.265 83.5727L98.2635 83.5744L98.8842 84.116ZM85.7473 75.7669L84.9671 75.5023L84.9647 75.5096L85.7473 75.7669ZM81.3721 60.6603L80.6047 60.9598L80.6079 60.9679L81.3721 60.6603ZM75.002 56.4714L75.281 55.6964L74.1782 55.2993V56.4714H75.002ZM66.2574 114.358L66.9412 114.817L66.9457 114.81L66.2574 114.358ZM41.9784 105.21L41.3029 105.681L41.3043 105.683L41.9784 105.21ZM28.6517 110.571L28.7324 109.751L27.0528 109.586L27.9558 111.012L28.6517 110.571ZM38.8049 132.056L39.5936 131.818L39.5929 131.816L38.8049 132.056ZM51.7349 158.689L52.5192 158.437L52.5185 158.435L51.7349 158.689ZM51.7349 171.221L51.6205 170.406L51.6183 170.406L51.7349 171.221ZM51.9246 182.168L51.2327 182.615L51.2336 182.616L51.9246 182.168ZM56.3055 193.694L56.4759 192.889L56.4733 192.888L56.3055 193.694ZM61.8707 197.079L61.8121 197.901L61.8171 197.901L61.8707 197.079ZM69.0458 202.842L69.7006 202.342L69.6987 202.34L69.0458 202.842ZM77.7903 202.245L77.1121 201.777L77.1102 201.78L77.7903 202.245ZM106.048 193.091L105.817 192.3L105.815 192.301L106.048 193.091ZM126.739 192.913L126.47 193.691L126.472 193.692L126.739 192.913ZM139.675 191.327L140.116 192.023L140.122 192.019L139.675 191.327ZM148.236 189.528L149.056 189.602L149.056 189.599L148.236 189.528ZM187.031 168.245L186.468 167.644L186.467 167.644L187.031 168.245ZM219.072 129.068L219.779 129.49L219.779 129.49L219.072 129.068ZM238.372 107.595L238.927 108.203L238.929 108.202L238.372 107.595ZM244.707 85.4491L245.526 85.5453L245.632 84.6399L244.721 84.6254L244.707 85.4491ZM184.445 133.033L185.182 133.403L185.183 133.4L184.445 133.033ZM181.249 140.193L181.132 141.009L181.772 141.1L182.013 140.501L181.249 140.193ZM175.678 139.394L175.008 139.873L175.212 140.16L175.561 140.21L175.678 139.394ZM167.727 128.258L167.061 127.774L166.711 128.254L167.056 128.737L167.727 128.258ZM175.678 116.329L174.941 115.96L174.941 115.961L175.678 116.329ZM189.212 110.761L189.949 110.395L189.948 110.392L189.212 110.761ZM197.956 121.093H197.132V121.096L197.956 121.093ZM234.692 86.2018C235.507 86.0829 235.507 86.0829 235.507 86.0829C235.507 86.0829 235.507 86.0829 235.507 86.0829C235.507 86.083 235.507 86.083 235.507 86.0829C235.507 86.0829 235.507 86.0829 235.507 86.0828C235.507 86.0826 235.507 86.0823 235.507 86.0819C235.507 86.0811 235.507 86.0797 235.507 86.0778C235.506 86.074 235.505 86.068 235.504 86.0601C235.502 86.0442 235.499 86.0202 235.494 85.9886C235.485 85.9253 235.472 85.8314 235.457 85.7107C235.425 85.4693 235.381 85.1209 235.333 84.6954L233.696 84.8811C233.745 85.3176 233.79 85.6759 233.823 85.9258C233.84 86.0507 233.853 86.1486 233.862 86.2157C233.867 86.2492 233.871 86.2751 233.873 86.2927C233.874 86.3016 233.875 86.3084 233.876 86.313C233.876 86.3154 233.877 86.3172 233.877 86.3185C233.877 86.3191 233.877 86.3196 233.877 86.32C233.877 86.3202 233.877 86.3204 233.877 86.3205C233.877 86.3205 233.877 86.3206 233.877 86.3206C233.877 86.3207 233.877 86.3207 233.877 86.3207C233.877 86.3207 233.877 86.3207 234.692 86.2018ZM233.994 84.1497C232.889 85.0495 231.585 86.4645 231.423 88.3133L233.064 88.4574C233.166 87.2952 234.023 86.2509 235.034 85.4269L233.994 84.1497ZM231.423 88.3082C231.364 88.933 231.174 89.3522 230.915 89.6516C230.651 89.9567 230.261 90.2 229.704 90.3759C228.552 90.7398 226.894 90.7558 224.799 90.6202L224.693 92.2643C226.773 92.3988 228.719 92.4148 230.2 91.9469C230.96 91.707 231.644 91.3265 232.16 90.7296C232.682 90.127 232.978 89.3661 233.063 88.4625L231.423 88.3082ZM224.802 90.6204C224.083 90.5718 223.228 90.0554 222.295 89.0467C221.385 88.0626 220.513 86.7318 219.75 85.3239C218.99 83.9214 218.356 82.4746 217.914 81.2816C217.693 80.685 217.522 80.1598 217.409 79.7415C217.288 79.2981 217.251 79.0443 217.251 78.956H215.603C215.603 79.2828 215.696 79.7217 215.819 80.1739C215.949 80.6512 216.136 81.2245 216.369 81.8543C216.836 83.1141 217.502 84.6323 218.301 86.1086C219.098 87.5795 220.046 89.0414 221.086 90.1654C222.103 91.2648 223.328 92.172 224.691 92.2641L224.802 90.6204ZM217.251 78.956C217.251 78.9614 217.252 78.9166 217.284 78.8043C217.315 78.6988 217.365 78.5626 217.438 78.3956C217.585 78.0613 217.806 77.6452 218.094 77.1715C218.668 76.2259 219.475 75.1013 220.386 74.0232C221.3 72.9428 222.298 71.9336 223.25 71.2022C224.236 70.4444 225.037 70.0917 225.58 70.0917V68.4443C224.461 68.4443 223.287 69.0957 222.246 69.8958C221.17 70.7224 220.088 71.8249 219.128 72.9596C218.167 74.0967 217.309 75.2906 216.686 76.3166C216.375 76.8288 216.115 77.3117 215.93 77.7335C215.758 78.1237 215.603 78.5654 215.603 78.956H217.251ZM225.58 70.0917C226.415 70.0917 227.554 70.559 228.895 71.3373C230.21 72.1005 231.549 73.0559 232.803 73.8946L233.719 72.5251C232.524 71.7261 231.097 70.7106 229.722 69.9124C228.372 69.1291 226.895 68.4443 225.58 68.4443V70.0917ZM234.082 73.1398C233.977 71.9199 233.97 71.081 234.008 70.8044L232.376 70.5817C232.31 71.0636 232.337 72.0749 232.44 73.2799L234.082 73.1398ZM234.004 70.8285C234.162 69.8822 234.762 64.2467 234.874 58.5886C234.93 55.7584 234.865 52.8847 234.552 50.5713C234.396 49.4169 234.174 48.3671 233.857 47.52C233.551 46.7009 233.105 45.9264 232.404 45.5194L231.577 46.9442C231.774 47.0587 232.048 47.3837 232.314 48.0964C232.57 48.7812 232.771 49.6956 232.92 50.7921C233.216 52.9807 233.282 55.7557 233.227 58.556C233.116 64.1589 232.52 69.7111 232.379 70.5575L234.004 70.8285ZM232.406 45.5208C232.155 45.374 231.797 44.9812 231.369 44.2319C230.958 43.5104 230.538 42.5604 230.117 41.4379C229.276 39.1954 228.465 36.3578 227.721 33.4926C226.978 30.6281 226.311 27.7722 225.748 25.476C225.469 24.3329 225.214 23.3252 224.99 22.5348C224.777 21.7821 224.566 21.1237 224.357 20.7584L222.927 21.5761C223.017 21.7337 223.179 22.1854 223.405 22.9831C223.62 23.7432 223.869 24.7264 224.148 25.8677C224.705 28.1404 225.379 31.0278 226.126 33.9065C226.873 36.7845 227.702 39.6902 228.574 42.0165C229.01 43.1785 229.465 44.2194 229.938 45.0483C230.396 45.8495 230.931 46.5668 231.574 46.9429L232.406 45.5208ZM224.357 20.7573C224.053 20.2276 223.469 19.9361 222.96 19.7536C222.41 19.5566 221.733 19.414 221.002 19.3022C219.538 19.0783 217.697 18.9554 215.902 18.8258C214.083 18.6944 212.306 18.556 210.894 18.3069C210.188 18.1822 209.61 18.0358 209.18 17.8647C208.727 17.6844 208.559 17.5237 208.514 17.4502L207.116 18.3222C207.444 18.8478 208.014 19.1741 208.571 19.3954C209.15 19.6261 209.853 19.796 210.608 19.9292C212.118 20.1958 213.982 20.3389 215.783 20.469C217.61 20.6009 219.371 20.7193 220.753 20.9307C221.445 21.0365 222.001 21.16 222.404 21.3044C222.847 21.4632 222.934 21.5884 222.928 21.5772L224.357 20.7573ZM208.513 17.4499C208.193 16.9364 207.664 16.6308 207.145 16.4363C206.614 16.2375 205.988 16.1158 205.334 16.0369C204.028 15.8793 202.446 15.8755 200.968 15.8738C199.456 15.8719 198.063 15.8718 197.031 15.7414C196.51 15.6756 196.156 15.5845 195.947 15.485C195.742 15.3871 195.84 15.3677 195.853 15.4938L194.215 15.6703C194.289 16.3566 194.786 16.7563 195.238 16.9721C195.687 17.1862 196.25 17.3033 196.824 17.3758C197.983 17.5221 199.496 17.5195 200.966 17.5212C202.471 17.523 203.948 17.529 205.137 17.6725C205.731 17.7442 206.212 17.8459 206.567 17.9791C206.934 18.1166 207.072 18.2514 207.116 18.3225L208.513 17.4499ZM194.352 15.1203C192.624 17.6736 190.718 20.4261 189.779 21.5537L191.045 22.6081C192.049 21.4028 194.007 18.57 195.716 16.0437L194.352 15.1203ZM189.779 21.5532C189.433 21.9679 188.894 22.2544 188.139 22.484C187.359 22.7212 186.547 22.848 185.604 23.0625C184.719 23.2638 183.758 23.5374 182.959 24.0742C182.122 24.6362 181.493 25.4655 181.25 26.6832L182.866 27.0056C183.02 26.2352 183.385 25.773 183.878 25.4417C184.409 25.0851 185.114 24.8635 185.969 24.669C186.766 24.4878 187.77 24.3183 188.619 24.0601C189.493 23.7943 190.396 23.3862 191.044 22.6086L189.779 21.5532ZM181.251 26.6812C181.087 27.4916 180.605 28.3629 179.861 29.2352C179.122 30.1015 178.162 30.9263 177.113 31.6425C176.066 32.3579 174.951 32.9515 173.917 33.3638C172.87 33.7814 171.961 33.9905 171.313 33.9905V35.638C172.257 35.638 173.387 35.3487 174.527 34.8941C175.681 34.4343 176.902 33.7821 178.043 33.0028C179.182 32.2242 180.261 31.3055 181.114 30.3041C181.963 29.3087 182.627 28.1882 182.866 27.0076L181.251 26.6812ZM171.313 33.9905C170.263 33.9905 169.333 34.4494 168.559 35.1134C167.788 35.7751 167.133 36.6717 166.604 37.6484C165.55 39.5934 164.912 42.0127 164.912 43.9564H166.56C166.56 42.3144 167.115 40.1627 168.052 38.4331C168.519 37.5724 169.058 36.8558 169.632 36.3637C170.203 35.8737 170.767 35.638 171.313 35.638V33.9905ZM164.912 43.9564C164.912 44.6127 164.614 45.4145 163.991 46.2893C163.375 47.1539 162.486 48.0267 161.422 48.8079C159.279 50.3814 156.562 51.4875 154.197 51.4875V53.1349C157.014 53.1349 160.066 51.8477 162.397 50.1359C163.57 49.2744 164.594 48.2816 165.333 47.2451C166.064 46.2188 166.56 45.0842 166.56 43.9564H164.912ZM154.197 51.4875C152.797 51.4875 151.713 51.7829 150.909 52.445C150.11 53.1034 149.715 54.0225 149.472 54.9914C149.234 55.9457 149.114 57.0852 148.962 58.2404C148.808 59.4229 148.614 60.6919 148.231 62.0249L149.815 62.479C150.232 61.0252 150.438 59.6581 150.596 58.4543C150.757 57.2231 150.862 56.2257 151.071 55.3915C151.276 54.5719 151.551 54.0509 151.957 53.7164C152.359 53.3854 153.013 53.1349 154.197 53.1349V51.4875ZM148.231 62.0266C147.469 64.7026 146.585 65.904 145.032 66.5589C144.203 66.9083 143.132 67.1231 141.688 67.2451C140.246 67.3669 138.486 67.3927 136.294 67.3927V69.0402C138.484 69.0402 140.308 69.015 141.827 68.8867C143.343 68.7586 144.611 68.524 145.672 68.0769C147.897 67.1387 148.996 65.3578 149.815 62.4774L148.231 62.0266ZM136.294 67.3927C131.924 67.3927 129.767 67.1868 127.874 66.496C125.944 65.7913 124.259 64.5807 120.809 62.3635L119.918 63.7495C123.246 65.8878 125.155 67.2572 127.309 68.0436C129.501 68.8439 131.921 69.0402 136.294 69.0402V67.3927ZM120.811 62.365C119.017 61.2034 117.419 60.7808 116.007 61.0095C114.587 61.2394 113.522 62.1002 112.744 63.1568C111.219 65.2261 110.608 68.2907 110.409 70.1093L112.047 70.2884C112.239 68.533 112.815 65.8371 114.07 64.1341C114.681 63.3045 115.404 62.7761 116.27 62.6358C117.144 62.4943 118.329 62.7202 119.916 63.7479L120.811 62.365ZM110.409 70.1068C110.337 70.7516 109.826 71.7107 108.872 72.9299C107.947 74.1117 106.708 75.4123 105.372 76.7222C104.037 78.0308 102.63 79.3251 101.368 80.5048C100.119 81.672 98.9927 82.7432 98.265 83.5727L99.5034 84.6592C100.167 83.9028 101.229 82.8889 102.493 81.7086C103.742 80.5409 105.172 79.2254 106.525 77.8986C107.877 76.5732 109.177 75.213 110.169 73.9454C111.132 72.7151 111.918 71.436 112.046 70.2909L110.409 70.1068ZM98.2635 83.5744C97.1638 84.8347 95.1746 85.0922 92.6329 84.8957C91.3972 84.8001 90.1249 84.6075 88.8738 84.4323C87.6441 84.26 86.4213 84.1024 85.3621 84.1024V85.7499C86.2892 85.7499 87.4019 85.8897 88.6453 86.0638C89.8673 86.235 91.2055 86.4377 92.5059 86.5383C95.0365 86.7339 97.822 86.5863 99.5049 84.6575L98.2635 83.5744ZM85.3621 84.1024C84.4757 84.1024 84.0625 83.9022 83.8611 83.7195C83.6647 83.5413 83.5338 83.2564 83.493 82.7688C83.4514 82.2713 83.5127 81.6822 83.6007 81.0031C83.6838 80.3618 83.7941 79.6211 83.7941 78.956H82.1466C82.1466 79.486 82.0579 80.0892 81.9669 80.7914C81.8808 81.4558 81.793 82.2099 81.8513 82.9062C81.9104 83.6123 82.1283 84.3717 82.7539 84.9395C83.3745 85.5027 84.2563 85.7499 85.3621 85.7499V84.1024ZM83.7941 78.956C83.7941 78.4631 83.8979 78.3486 83.9091 78.336C83.9425 78.2983 84.0064 78.2536 84.3252 78.1468C84.5949 78.0564 85.054 77.9186 85.4782 77.5975C85.9286 77.2566 86.2888 76.7572 86.5298 76.0241L84.9647 75.5096C84.8119 75.9746 84.6281 76.1748 84.4839 76.2839C84.3137 76.4128 84.1278 76.4754 83.8017 76.5847C83.5248 76.6775 83.0421 76.8317 82.6779 77.2412C82.2915 77.6758 82.1466 78.2565 82.1466 78.956H83.7941ZM86.5273 76.0314C86.6765 75.5915 86.7048 75.075 86.6786 74.5576C86.6518 74.0277 86.5637 73.4317 86.4352 72.7995C86.178 71.5349 85.744 70.0571 85.2423 68.5521C84.2382 65.5399 82.9329 62.3317 82.1362 60.3527L80.6079 60.9679C81.4096 62.9595 82.6943 66.118 83.6794 69.0731C84.1723 70.5518 84.5828 71.9578 84.8207 73.1278C84.9397 73.7129 85.012 74.2218 85.0332 74.6409C85.0551 75.0725 85.0192 75.3489 84.9672 75.5023L86.5273 76.0314ZM82.1395 60.3609C81.7019 59.2394 80.6432 58.3358 79.4602 57.6113C78.2492 56.8695 76.7663 56.2311 75.281 55.6964L74.7229 57.2464C76.1583 57.7632 77.5241 58.3574 78.5998 59.0162C79.7036 59.6923 80.3697 60.3574 80.6047 60.9598L82.1395 60.3609ZM74.1782 56.4714C74.1782 56.5154 74.1782 56.5595 74.1782 56.6036C74.1782 56.6476 74.1782 56.6917 74.1782 56.7358C74.1782 56.7799 74.1782 56.8239 74.1782 56.868C74.1782 56.9121 74.1782 56.9562 74.1782 57.0003C74.1782 57.0444 74.1782 57.0885 74.1782 57.1326C74.1782 57.1767 74.1782 57.2208 74.1782 57.265C74.1782 57.3091 74.1782 57.3532 74.1782 57.3973C74.1782 57.4415 74.1782 57.4856 74.1782 57.5298C74.1782 57.5739 74.1782 57.618 74.1782 57.6622C74.1782 57.7063 74.1782 57.7505 74.1782 57.7947C74.1782 57.8388 74.1782 57.883 74.1782 57.9272C74.1782 57.9713 74.1782 58.0155 74.1782 58.0597C74.1782 58.1039 74.1782 58.1481 74.1782 58.1922C74.1782 58.2364 74.1782 58.2806 74.1782 58.3248C74.1782 58.369 74.1782 58.4132 74.1782 58.4574C74.1782 58.5016 74.1782 58.5458 74.1782 58.5901C74.1782 58.6343 74.1782 58.6785 74.1782 58.7227C74.1782 58.7669 74.1782 58.8111 74.1782 58.8554C74.1782 58.8996 74.1782 58.9438 74.1782 58.9881C74.1782 59.0323 74.1782 59.0765 74.1782 59.1208C74.1782 59.165 74.1782 59.2092 74.1782 59.2535C74.1782 59.2977 74.1782 59.342 74.1782 59.3862C74.1782 59.4305 74.1782 59.4747 74.1782 59.519C74.1782 59.5632 74.1782 59.6075 74.1782 59.6518C74.1782 59.696 74.1782 59.7403 74.1782 59.7845C74.1782 59.8288 74.1782 59.8731 74.1782 59.9174C74.1782 59.9616 74.1782 60.0059 74.1782 60.0502C74.1782 60.0944 74.1782 60.1387 74.1782 60.183C74.1782 60.2273 74.1782 60.2715 74.1782 60.3158C74.1782 60.3601 74.1782 60.4044 74.1782 60.4486C74.1782 60.4929 74.1782 60.5372 74.1782 60.5815C74.1782 60.6258 74.1782 60.6701 74.1782 60.7143C74.1782 60.7586 74.1782 60.8029 74.1782 60.8472C74.1782 60.8915 74.1782 60.9358 74.1782 60.9801C74.1782 61.0243 74.1782 61.0686 74.1782 61.1129C74.1782 61.1572 74.1782 61.2015 74.1782 61.2458C74.1782 61.2901 74.1782 61.3344 74.1782 61.3787C74.1782 61.4229 74.1782 61.4672 74.1782 61.5115C74.1782 61.5558 74.1782 61.6001 74.1782 61.6444C74.1782 61.6887 74.1782 61.733 74.1782 61.7773C74.1782 61.8215 74.1782 61.8658 74.1782 61.9101C74.1782 61.9544 74.1782 61.9987 74.1782 62.043C74.1782 62.0873 74.1782 62.1315 74.1782 62.1758C74.1782 62.2201 74.1782 62.2644 74.1782 62.3087C74.1782 62.3529 74.1782 62.3972 74.1782 62.4415C74.1782 62.4858 74.1782 62.5301 74.1782 62.5743C74.1782 62.6186 74.1782 62.6629 74.1782 62.7071C74.1782 62.7514 74.1782 62.7957 74.1782 62.84C74.1782 62.8842 74.1782 62.9285 74.1782 62.9727C74.1782 63.017 74.1782 63.0613 74.1782 63.1055C74.1782 63.1498 74.1782 63.194 74.1782 63.2383C74.1782 63.2826 74.1782 63.3268 74.1782 63.3711C74.1782 63.4153 74.1782 63.4595 74.1782 63.5038C74.1782 63.548 74.1782 63.5923 74.1782 63.6365C74.1782 63.6807 74.1782 63.725 74.1782 63.7692C74.1782 63.8134 74.1782 63.8577 74.1782 63.9019C74.1782 63.9461 74.1782 63.9903 74.1782 64.0346C74.1782 64.0788 74.1782 64.123 74.1782 64.1672C74.1782 64.2114 74.1782 64.2556 74.1782 64.2998C74.1782 64.344 74.1782 64.3882 74.1782 64.4324C74.1782 64.4766 74.1782 64.5208 74.1782 64.565C74.1782 64.6092 74.1782 64.6534 74.1782 64.6975C74.1782 64.7417 74.1782 64.7859 74.1782 64.8301C74.1782 64.8742 74.1782 64.9184 74.1782 64.9625C74.1782 65.0067 74.1782 65.0509 74.1782 65.095C74.1782 65.1392 74.1782 65.1833 74.1782 65.2274C74.1782 65.2716 74.1782 65.3157 74.1782 65.3598C74.1782 65.404 74.1782 65.4481 74.1782 65.4922C74.1782 65.5363 74.1782 65.5804 74.1782 65.6246C74.1782 65.6687 74.1782 65.7128 74.1782 65.7569C74.1782 65.801 74.1782 65.845 74.1782 65.8891C74.1782 65.9332 74.1782 65.9773 74.1782 66.0214C74.1782 66.0654 74.1782 66.1095 74.1782 66.1536C74.1782 66.1976 74.1782 66.2417 74.1782 66.2857C74.1782 66.3298 74.1782 66.3738 74.1782 66.4178C74.1782 66.4619 74.1782 66.5059 74.1782 66.5499C74.1782 66.5939 74.1782 66.6379 74.1782 66.6819C74.1782 66.726 74.1782 66.7699 74.1782 66.8139C74.1782 66.8579 74.1782 66.9019 74.1782 66.9459C74.1782 66.9899 74.1782 67.0338 74.1782 67.0778C74.1782 67.1218 74.1782 67.1657 74.1782 67.2097C74.1782 67.2536 74.1782 67.2975 74.1782 67.3415C74.1782 67.3854 74.1782 67.4293 74.1782 67.4732C74.1782 67.5172 74.1782 67.5611 74.1782 67.605C74.1782 67.6489 74.1782 67.6927 74.1782 67.7366C74.1782 67.7805 74.1782 67.8244 74.1782 67.8682C74.1782 67.9121 74.1782 67.956 74.1782 67.9998C74.1782 68.0437 74.1782 68.0875 74.1782 68.1313C74.1782 68.1751 74.1782 68.219 74.1782 68.2628C74.1782 68.3066 74.1782 68.3504 74.1782 68.3942C74.1782 68.438 74.1782 68.4818 74.1782 68.5255C74.1782 68.5693 74.1782 68.6131 74.1782 68.6568C74.1782 68.7006 74.1782 68.7443 74.1782 68.788C74.1782 68.8318 74.1782 68.8755 74.1782 68.9192C74.1782 68.9629 74.1782 69.0066 74.1782 69.0503C74.1782 69.094 74.1782 69.1377 74.1782 69.1814C74.1782 69.2251 74.1782 69.2687 74.1782 69.3124C74.1782 69.356 74.1782 69.3997 74.1782 69.4433C74.1782 69.4869 74.1782 69.5305 74.1782 69.5742C74.1782 69.6178 74.1782 69.6614 74.1782 69.705C74.1782 69.7485 74.1782 69.7921 74.1782 69.8357C74.1782 69.8792 74.1782 69.9228 74.1782 69.9663C74.1782 70.0099 74.1782 70.0534 74.1782 70.0969C74.1782 70.1404 74.1782 70.184 74.1782 70.2275C74.1782 70.2709 74.1782 70.3144 74.1782 70.3579C74.1782 70.4014 74.1782 70.4448 74.1782 70.4883C74.1782 70.5317 74.1782 70.5752 74.1782 70.6186C74.1782 70.662 74.1782 70.7054 74.1782 70.7488C74.1782 70.7922 74.1782 70.8356 74.1782 70.879C74.1782 70.9223 74.1782 70.9657 74.1782 71.0091C74.1782 71.0524 74.1782 71.0957 74.1782 71.1391C74.1782 71.1824 74.1782 71.2257 74.1782 71.269C74.1782 71.3123 74.1782 71.3556 74.1782 71.3988C74.1782 71.4421 74.1782 71.4853 74.1782 71.5286C74.1782 71.5718 74.1782 71.6151 74.1782 71.6583C74.1782 71.7015 74.1782 71.7447 74.1782 71.7879C74.1782 71.8311 74.1782 71.8742 74.1782 71.9174C74.1782 71.9605 74.1782 72.0037 74.1782 72.0468C74.1782 72.09 74.1782 72.1331 74.1782 72.1762C74.1782 72.2193 74.1782 72.2624 74.1782 72.3054C74.1782 72.3485 74.1782 72.3916 74.1782 72.4346C74.1782 72.4776 74.1782 72.5207 74.1782 72.5637C74.1782 72.6067 74.1782 72.6497 74.1782 72.6927C74.1782 72.7357 74.1782 72.7786 74.1782 72.8216C74.1782 72.8645 74.1782 72.9075 74.1782 72.9504C74.1782 72.9933 74.1782 73.0362 74.1782 73.0791C74.1782 73.122 74.1782 73.1649 74.1782 73.2077C74.1782 73.2506 74.1782 73.2934 74.1782 73.3363C74.1782 73.3791 74.1782 73.4219 74.1782 73.4647C74.1782 73.5075 74.1782 73.5503 74.1782 73.593C74.1782 73.6358 74.1782 73.6785 74.1782 73.7213C74.1782 73.764 74.1782 73.8067 74.1782 73.8494C74.1782 73.8921 74.1782 73.9348 74.1782 73.9774C74.1782 74.0201 74.1782 74.0627 74.1782 74.1054C74.1782 74.148 74.1782 74.1906 74.1782 74.2332C74.1782 74.2758 74.1782 74.3184 74.1782 74.3609C74.1782 74.4035 74.1782 74.446 74.1782 74.4885C74.1782 74.5311 74.1782 74.5736 74.1782 74.6161C74.1782 74.6585 74.1782 74.701 74.1782 74.7435C74.1782 74.7859 74.1782 74.8284 74.1782 74.8708C74.1782 74.9132 74.1782 74.9556 74.1782 74.998C74.1782 75.0403 74.1782 75.0827 74.1782 75.125C74.1782 75.1674 74.1782 75.2097 74.1782 75.252C74.1782 75.2943 74.1782 75.3366 74.1782 75.3789C74.1782 75.4212 74.1782 75.4634 74.1782 75.5056C74.1782 75.5479 74.1782 75.5901 74.1782 75.6323C74.1782 75.6745 74.1782 75.7166 74.1782 75.7588C74.1782 75.8009 74.1782 75.8431 74.1782 75.8852C74.1782 75.9273 74.1782 75.9694 74.1782 76.0115C74.1782 76.0535 74.1782 76.0956 74.1782 76.1376C74.1782 76.1797 74.1782 76.2217 74.1782 76.2637C74.1782 76.3057 74.1782 76.3476 74.1782 76.3896C74.1782 76.4316 74.1782 76.4735 74.1782 76.5154C74.1782 76.5573 74.1782 76.5992 74.1782 76.6411C74.1782 76.683 74.1782 76.7248 74.1782 76.7666C74.1782 76.8085 74.1782 76.8503 74.1782 76.8921C74.1782 76.9339 74.1782 76.9756 74.1782 77.0174C74.1782 77.0591 74.1782 77.1009 74.1782 77.1426C74.1782 77.1843 74.1782 77.226 74.1782 77.2676C74.1782 77.3093 74.1782 77.3509 74.1782 77.3925C74.1782 77.4342 74.1782 77.4758 74.1782 77.5173C74.1782 77.5589 74.1782 77.6005 74.1782 77.642C74.1782 77.6835 74.1782 77.725 74.1782 77.7665C74.1782 77.808 74.1782 77.8495 74.1782 77.8909C74.1782 77.9324 74.1782 77.9738 74.1782 78.0152C74.1782 78.0566 74.1782 78.098 74.1782 78.1393C74.1782 78.1807 74.1782 78.222 74.1782 78.2633C74.1782 78.3046 74.1782 78.3459 74.1782 78.3872C74.1782 78.4284 74.1782 78.4697 74.1782 78.5109C74.1782 78.5521 74.1782 78.5933 74.1782 78.6344C74.1782 78.6756 74.1782 78.7168 74.1782 78.7579C74.1782 78.799 74.1782 78.8401 74.1782 78.8812C74.1782 78.9222 74.1782 78.9633 74.1782 79.0043C74.1782 79.0453 74.1782 79.0863 74.1782 79.1273C74.1782 79.1683 74.1782 79.2093 74.1782 79.2502C74.1782 79.2911 74.1782 79.332 74.1782 79.3729C74.1782 79.4138 74.1782 79.4546 74.1782 79.4955C74.1782 79.5363 74.1782 79.5771 74.1782 79.6179C74.1782 79.6587 74.1782 79.6994 74.1782 79.7402C74.1782 79.7809 74.1782 79.8216 74.1782 79.8623C74.1782 79.903 74.1782 79.9436 74.1782 79.9842C74.1782 80.0249 74.1782 80.0655 74.1782 80.1061C74.1782 80.1466 74.1782 80.1872 74.1782 80.2277C74.1782 80.2683 74.1782 80.3088 74.1782 80.3492C74.1782 80.3897 74.1782 80.4302 74.1782 80.4706C74.1782 80.511 74.1782 80.5514 74.1782 80.5918C74.1782 80.6322 74.1782 80.6725 74.1782 80.7128C74.1782 80.7532 74.1782 80.7934 74.1782 80.8337C74.1782 80.874 74.1782 80.9142 74.1782 80.9544C74.1782 80.9947 74.1782 81.0348 74.1782 81.075C74.1782 81.1152 74.1782 81.1553 74.1782 81.1954C74.1782 81.2355 74.1782 81.2756 74.1782 81.3156C74.1782 81.3557 74.1782 81.3957 74.1782 81.4357C74.1782 81.4757 74.1782 81.5157 74.1782 81.5556C74.1782 81.5956 74.1782 81.6355 74.1782 81.6754C74.1782 81.7152 74.1782 81.7551 74.1782 81.7949C74.1782 81.8348 74.1782 81.8746 74.1782 81.9143C74.1782 81.9541 74.1782 81.9939 74.1782 82.0336C74.1782 82.0733 74.1782 82.113 74.1782 82.1526C74.1782 82.1923 74.1782 82.2319 74.1782 82.2715C74.1782 82.3111 74.1782 82.3507 74.1782 82.3903C74.1782 82.4298 74.1782 82.4693 74.1782 82.5088C74.1782 82.5483 74.1782 82.5878 74.1782 82.6272C74.1782 82.6666 74.1782 82.706 74.1782 82.7454C74.1782 82.7848 74.1782 82.8241 74.1782 82.8634C74.1782 82.9027 74.1782 82.942 74.1782 82.9813C74.1782 83.0205 74.1782 83.0597 74.1782 83.0989C74.1782 83.1381 74.1782 83.1773 74.1782 83.2164C74.1782 83.2555 74.1782 83.2947 74.1782 83.3337C74.1782 83.3728 74.1782 83.4118 74.1782 83.4509C74.1782 83.4899 74.1782 83.5288 74.1782 83.5678C74.1782 83.6067 74.1782 83.6457 74.1782 83.6846C74.1782 83.7234 74.1782 83.7623 74.1782 83.8011C74.1782 83.84 74.1782 83.8787 74.1782 83.9175C74.1782 83.9563 74.1782 83.995 74.1782 84.0337C74.1782 84.0724 74.1782 84.1111 74.1782 84.1497C74.1782 84.1884 74.1782 84.227 74.1782 84.2655C74.1782 84.3041 74.1782 84.3427 74.1782 84.3812C74.1782 84.4197 74.1782 84.4582 74.1782 84.4966C74.1782 84.5351 74.1782 84.5735 74.1782 84.6119C74.1782 84.6503 74.1782 84.6886 74.1782 84.7269C74.1782 84.7652 74.1782 84.8035 74.1782 84.8418C74.1782 84.88 74.1782 84.9183 74.1782 84.9565C74.1782 84.9946 74.1782 85.0328 74.1782 85.0709C74.1782 85.109 74.1782 85.1471 74.1782 85.1852C74.1782 85.2233 74.1782 85.2613 74.1782 85.2993C74.1782 85.3373 74.1782 85.3752 74.1782 85.4131C74.1782 85.4511 74.1782 85.489 74.1782 85.5268C74.1782 85.5647 74.1782 85.6025 74.1782 85.6403C74.1782 85.6781 74.1782 85.7158 74.1782 85.7535C74.1782 85.7913 74.1782 85.829 74.1782 85.8666C74.1782 85.9043 74.1782 85.9419 74.1782 85.9795C74.1782 86.0171 74.1782 86.0546 74.1782 86.0921C74.1782 86.1296 74.1782 86.1671 74.1782 86.2046C74.1782 86.242 74.1782 86.2794 74.1782 86.3168C74.1782 86.3542 74.1782 86.3915 74.1782 86.4288C74.1782 86.4661 74.1782 86.5034 74.1782 86.5406C74.1782 86.5779 74.1782 86.6151 74.1782 86.6523C74.1782 86.6894 74.1782 86.7265 74.1782 86.7636C74.1782 86.8007 74.1782 86.8378 74.1782 86.8748C74.1782 86.9118 74.1782 86.9488 74.1782 86.9858C74.1782 87.0227 74.1782 87.0597 74.1782 87.0965C74.1782 87.1334 74.1782 87.1703 74.1782 87.2071C74.1782 87.2439 74.1782 87.2807 74.1782 87.3174C74.1782 87.3541 74.1782 87.3908 74.1782 87.4275C74.1782 87.4641 74.1782 87.5008 74.1782 87.5374C74.1782 87.5739 74.1782 87.6105 74.1782 87.647C74.1782 87.6835 74.1782 87.72 74.1782 87.7564C74.1782 87.7929 74.1782 87.8293 74.1782 87.8657C74.1782 87.902 74.1782 87.9384 74.1782 87.9746C74.1782 88.0109 74.1782 88.0472 74.1782 88.0834C74.1782 88.1196 74.1782 88.1558 74.1782 88.1919C74.1782 88.2281 74.1782 88.2642 74.1782 88.3002C74.1782 88.3363 74.1782 88.3723 74.1782 88.4083C74.1782 88.4443 74.1782 88.4803 74.1782 88.5162C74.1782 88.5521 74.1782 88.588 74.1782 88.6238C74.1782 88.6596 74.1782 88.6954 74.1782 88.7312C74.1782 88.7669 74.1782 88.8027 74.1782 88.8383C74.1782 88.874 74.1782 88.9097 74.1782 88.9453C74.1782 88.9809 74.1782 89.0164 74.1782 89.0519C74.1782 89.0875 74.1782 89.123 74.1782 89.1584C74.1782 89.1938 74.1782 89.2292 74.1782 89.2646C74.1782 89.3 74.1782 89.3353 74.1782 89.3706C74.1782 89.4059 74.1782 89.4411 74.1782 89.4763C74.1782 89.5115 74.1782 89.5467 74.1782 89.5818C74.1782 89.617 74.1782 89.652 74.1782 89.6871C74.1782 89.7221 74.1782 89.7571 74.1782 89.7921C74.1782 89.8271 74.1782 89.862 74.1782 89.8969C74.1782 89.9318 74.1782 89.9666 74.1782 90.0014C74.1782 90.0362 74.1782 90.071 74.1782 90.1057C74.1782 90.1404 74.1782 90.1751 74.1782 90.2097C74.1782 90.2444 74.1782 90.279 74.1782 90.3135C74.1782 90.3481 74.1782 90.3826 74.1782 90.4171C74.1782 90.4515 74.1782 90.486 74.1782 90.5203C74.1782 90.5547 74.1782 90.5891 74.1782 90.6234C74.1782 90.6577 74.1782 90.692 74.1782 90.7262C74.1782 90.7604 74.1782 90.7946 74.1782 90.8287C74.1782 90.8628 74.1782 90.8969 74.1782 90.931C74.1782 90.965 74.1782 90.9991 74.1782 91.033C74.1782 91.067 74.1782 91.1009 74.1782 91.1348C74.1782 91.1687 74.1782 91.2025 74.1782 91.2363C74.1782 91.2701 74.1782 91.3039 74.1782 91.3376C74.1782 91.3713 74.1782 91.4049 74.1782 91.4386C74.1782 91.4722 74.1782 91.5058 74.1782 91.5393C74.1782 91.5728 74.1782 91.6063 74.1782 91.6398C74.1782 91.6732 74.1782 91.7066 74.1782 91.74C74.1782 91.7734 74.1782 91.8067 74.1782 91.84C74.1782 91.8732 74.1782 91.9065 74.1782 91.9396C74.1782 91.9728 74.1782 92.006 74.1782 92.0391C74.1782 92.0722 74.1782 92.1052 74.1782 92.1382C74.1782 92.1712 74.1782 92.2042 74.1782 92.2371C74.1782 92.27 74.1782 92.3029 74.1782 92.3357C74.1782 92.3686 74.1782 92.4013 74.1782 92.4341C74.1782 92.4668 74.1782 92.4995 74.1782 92.5322C74.1782 92.5648 74.1782 92.5974 74.1782 92.63C74.1782 92.6625 74.1782 92.695 74.1782 92.7275C74.1782 92.76 74.1782 92.7924 74.1782 92.8248C74.1782 92.8572 74.1782 92.8895 74.1782 92.9218C74.1782 92.954 74.1782 92.9863 74.1782 93.0185C74.1782 93.0507 74.1782 93.0828 74.1782 93.1149C74.1782 93.147 74.1782 93.1791 74.1782 93.2111C74.1782 93.2431 74.1782 93.275 74.1782 93.3069C74.1782 93.3389 74.1782 93.3707 74.1782 93.4025C74.1782 93.4344 74.1782 93.4661 74.1782 93.4979C74.1782 93.5296 74.1782 93.5613 74.1782 93.5929C74.1782 93.6245 74.1782 93.6561 74.1782 93.6877C74.1782 93.7192 74.1782 93.7507 74.1782 93.7821C74.1782 93.8136 74.1782 93.845 74.1782 93.8763C74.1782 93.9076 74.1782 93.9389 74.1782 93.9702C74.1782 94.0014 74.1782 94.0327 74.1782 94.0638C74.1782 94.095 74.1782 94.1261 74.1782 94.1571C74.1782 94.1882 74.1782 94.2192 74.1782 94.2502C74.1782 94.2811 74.1782 94.312 74.1782 94.3429C74.1782 94.3738 74.1782 94.4046 74.1782 94.4353C74.1782 94.4661 74.1782 94.4968 74.1782 94.5275C74.1782 94.5582 74.1782 94.5888 74.1782 94.6194C74.1782 94.6499 74.1782 94.6805 74.1782 94.7109C74.1782 94.7414 74.1782 94.7718 74.1782 94.8022C74.1782 94.8326 74.1782 94.8629 74.1782 94.8932C74.1782 94.9234 74.1782 94.9537 74.1782 94.9838C74.1782 95.014 74.1782 95.0442 74.1782 95.0742C74.1782 95.1043 74.1782 95.1343 74.1782 95.1643C74.1782 95.1943 74.1782 95.2242 74.1782 95.2541C74.1782 95.284 74.1782 95.3138 74.1782 95.3436C74.1782 95.3733 74.1782 95.4031 74.1782 95.4327C74.1782 95.4624 74.1782 95.492 74.1782 95.5216C74.1782 95.5512 74.1782 95.5807 74.1782 95.6101C74.1782 95.6396 74.1782 95.669 74.1782 95.6984C74.1782 95.7278 74.1782 95.7571 74.1782 95.7863C74.1782 95.8156 74.1782 95.8448 74.1782 95.874C74.1782 95.9031 74.1782 95.9323 74.1782 95.9613C74.1782 95.9904 74.1782 96.0194 74.1782 96.0483C74.1782 96.0773 74.1782 96.1062 74.1782 96.135C74.1782 96.1639 74.1782 96.1927 74.1782 96.2214C74.1782 96.2502 74.1782 96.2789 74.1782 96.3075C74.1782 96.3362 74.1782 96.3647 74.1782 96.3933C74.1782 96.4218 74.1782 96.4503 74.1782 96.4787C74.1782 96.5071 74.1782 96.5355 74.1782 96.5639C74.1782 96.5922 74.1782 96.6204 74.1782 96.6487C74.1782 96.6769 74.1782 96.705 74.1782 96.7332C74.1782 96.7613 74.1782 96.7893 74.1782 96.8173C74.1782 96.8453 74.1782 96.8733 74.1782 96.9012C74.1782 96.9291 74.1782 96.9569 74.1782 96.9847C74.1782 97.0125 74.1782 97.0402 74.1782 97.0679C74.1782 97.0956 74.1782 97.1232 74.1782 97.1508C74.1782 97.1784 74.1782 97.2059 74.1782 97.2334C74.1782 97.2608 74.1782 97.2882 74.1782 97.3156C74.1782 97.3429 74.1782 97.3702 74.1782 97.3975C74.1782 97.4247 74.1782 97.4519 74.1782 97.4791C74.1782 97.5062 74.1782 97.5333 74.1782 97.5603C74.1782 97.5873 74.1782 97.6143 74.1782 97.6412C74.1782 97.6681 74.1782 97.695 74.1782 97.7218C74.1782 97.7486 74.1782 97.7754 74.1782 97.8021C74.1782 97.8288 74.1782 97.8554 74.1782 97.882C74.1782 97.9086 74.1782 97.9351 74.1782 97.9616C74.1782 97.988 74.1782 98.0144 74.1782 98.0408C74.1782 98.0672 74.1782 98.0935 74.1782 98.1197C74.1782 98.146 74.1782 98.1721 74.1782 98.1983C74.1782 98.2244 74.1782 98.2505 74.1782 98.2765C74.1782 98.3025 74.1782 98.3285 74.1782 98.3544C74.1782 98.3803 74.1782 98.4061 74.1782 98.4319C74.1782 98.4577 74.1782 98.4835 74.1782 98.5091C74.1782 98.5348 74.1782 98.5604 74.1782 98.586C74.1782 98.6116 74.1782 98.6371 74.1782 98.6625C74.1782 98.688 74.1782 98.7134 74.1782 98.7387C74.1782 98.764 74.1782 98.7893 74.1782 98.8145C74.1782 98.8397 74.1782 98.8649 74.1782 98.89C74.1782 98.9151 74.1782 98.9401 74.1782 98.9651C74.1782 98.9901 74.1782 99.015 74.1782 99.0399C74.1782 99.0648 74.1782 99.0896 74.1782 99.1143C74.1782 99.1391 74.1782 99.1638 74.1782 99.1884C74.1782 99.213 74.1782 99.2376 74.1782 99.2621C74.1782 99.2867 74.1782 99.3111 74.1782 99.3355C74.1782 99.3599 74.1782 99.3842 74.1782 99.4085C74.1782 99.4328 74.1782 99.457 74.1782 99.4812C74.1782 99.5053 74.1782 99.5294 74.1782 99.5535C74.1782 99.5775 74.1782 99.6015 74.1782 99.6254C74.1782 99.6493 74.1782 99.6732 74.1782 99.697C74.1782 99.7208 74.1782 99.7445 74.1782 99.7682C74.1782 99.7919 74.1782 99.8155 74.1782 99.8391C74.1782 99.8626 74.1782 99.8862 74.1782 99.9096C74.1782 99.933 74.1782 99.9564 74.1782 99.9797C74.1782 100.003 74.1782 100.026 74.1782 100.049C74.1782 100.073 74.1782 100.096 74.1782 100.119C74.1782 100.142 74.1782 100.165 74.1782 100.188C74.1782 100.211 74.1782 100.234 74.1782 100.257C74.1782 100.279 74.1782 100.302 74.1782 100.325C74.1782 100.348 74.1782 100.37 74.1782 100.393C74.1782 100.415 74.1782 100.438 74.1782 100.46C74.1782 100.483 74.1782 100.505 74.1782 100.528C74.1782 100.55 74.1782 100.572 74.1782 100.594C74.1782 100.617 74.1782 100.639 74.1782 100.661C74.1782 100.683 74.1782 100.705 74.1782 100.727C74.1782 100.749 74.1782 100.771 74.1782 100.793C74.1782 100.814 74.1782 100.836 74.1782 100.858C74.1782 100.88 74.1782 100.901 74.1782 100.923C74.1782 100.944 74.1782 100.966 74.1782 100.987C74.1782 101.009 74.1782 101.03 74.1782 101.052C74.1782 101.073 74.1782 101.094 74.1782 101.115C74.1782 101.137 74.1782 101.158 74.1782 101.179C74.1782 101.2 74.1782 101.221 74.1782 101.242C74.1782 101.263 74.1782 101.284 74.1782 101.304C74.1782 101.325 74.1782 101.346 74.1782 101.367C74.1782 101.387 74.1782 101.408 74.1782 101.429C74.1782 101.449 74.1782 101.47 74.1782 101.49C74.1782 101.511 74.1782 101.531 74.1782 101.551C74.1782 101.571 74.1782 101.592 74.1782 101.612C74.1782 101.632 74.1782 101.652 74.1782 101.672C74.1782 101.692 74.1782 101.712 74.1782 101.732C74.1782 101.752 74.1782 101.772 74.1782 101.792C74.1782 101.811 74.1782 101.831 74.1782 101.851C74.1782 101.87 74.1782 101.89 74.1782 101.91C74.1782 101.929 74.1782 101.949 74.1782 101.968C74.1782 101.987 74.1782 102.007 74.1782 102.026C74.1782 102.045 74.1782 102.064 74.1782 102.083C74.1782 102.102 74.1782 102.122 74.1782 102.141C74.1782 102.16 74.1782 102.178 74.1782 102.197C74.1782 102.216 74.1782 102.235 74.1782 102.254C74.1782 102.272 74.1782 102.291 74.1782 102.31C74.1782 102.328 74.1782 102.347 74.1782 102.365C74.1782 102.384 74.1782 102.402 74.1782 102.42C74.1782 102.439 74.1782 102.457 74.1782 102.475C74.1782 102.493 74.1782 102.511 74.1782 102.529C74.1782 102.547 74.1782 102.565 74.1782 102.583C74.1782 102.601 74.1782 102.619 74.1782 102.637C74.1782 102.654 74.1782 102.672 74.1782 102.69C74.1782 102.707 74.1782 102.725 74.1782 102.743C74.1782 102.76 74.1782 102.777 74.1782 102.795C74.1782 102.812 74.1782 102.829 74.1782 102.847C74.1782 102.864 74.1782 102.881 74.1782 102.898C74.1782 102.915 74.1782 102.932 74.1782 102.949C74.1782 102.966 74.1782 102.983 74.1782 103C74.1782 103.017 74.1782 103.033 74.1782 103.05C74.1782 103.067 74.1782 103.083 74.1782 103.1C74.1782 103.116 74.1782 103.133 74.1782 103.149C74.1782 103.165 74.1782 103.182 74.1782 103.198C74.1782 103.214 74.1782 103.23 74.1782 103.247C74.1782 103.263 74.1782 103.279 74.1782 103.295C74.1782 103.311 74.1782 103.326 74.1782 103.342C74.1782 103.358 74.1782 103.374 74.1782 103.39C74.1782 103.405 74.1782 103.421 74.1782 103.436C74.1782 103.452 74.1782 103.467 74.1782 103.483C74.1782 103.498 74.1782 103.513 74.1782 103.529C74.1782 103.544 74.1782 103.559 74.1782 103.574C74.1782 103.589 74.1782 103.604 74.1782 103.619C74.1782 103.634 74.1782 103.649 74.1782 103.664C74.1782 103.679 74.1782 103.694 74.1782 103.708C74.1782 103.723 74.1782 103.738 74.1782 103.752C74.1782 103.767 74.1782 103.781 74.1782 103.795C74.1782 103.81 74.1782 103.824 74.1782 103.838C74.1782 103.853 74.1782 103.867 74.1782 103.881C74.1782 103.895 74.1782 103.909 74.1782 103.923C74.1782 103.937 74.1782 103.951 74.1782 103.965C74.1782 103.978 74.1782 103.992 74.1782 104.006C74.1782 104.019 74.1782 104.033 74.1782 104.047C74.1782 104.06 74.1782 104.073 74.1782 104.087C74.1782 104.1 74.1782 104.113 74.1782 104.127C74.1782 104.14 74.1782 104.153 74.1782 104.166C74.1782 104.179 74.1782 104.192 74.1782 104.205C74.1782 104.218 74.1782 104.231 74.1782 104.244C74.1782 104.256 74.1782 104.269 74.1782 104.282C74.1782 104.294 74.1782 104.307 74.1782 104.319C74.1782 104.332 74.1782 104.344 74.1782 104.357C74.1782 104.369 74.1782 104.381 74.1782 104.393C74.1782 104.405 74.1782 104.418 74.1782 104.43C74.1782 104.442 74.1782 104.453 74.1782 104.465C74.1782 104.477 74.1782 104.489 74.1782 104.501C74.1782 104.512 74.1782 104.524 74.1782 104.536C74.1782 104.547 74.1782 104.559 74.1782 104.57C74.1782 104.582 74.1782 104.593 74.1782 104.604C74.1782 104.615 74.1782 104.627 74.1782 104.638C74.1782 104.649 74.1782 104.66 74.1782 104.671C74.1782 104.682 74.1782 104.693 74.1782 104.703C74.1782 104.714 74.1782 104.725 74.1782 104.736C74.1782 104.746 74.1782 104.757 74.1782 104.767C74.1782 104.778 74.1782 104.788 74.1782 104.799C74.1782 104.809 74.1782 104.819 74.1782 104.829C74.1782 104.84 74.1782 104.85 74.1782 104.86C74.1782 104.87 74.1782 104.88 74.1782 104.89C74.1782 104.899 74.1782 104.909 74.1782 104.919C74.1782 104.929 74.1782 104.938 74.1782 104.948C74.1782 104.957 74.1782 104.967 74.1782 104.976C74.1782 104.986 74.1782 104.995 74.1782 105.004C74.1782 105.014 74.1782 105.023 74.1782 105.032C74.1782 105.041 74.1782 105.05 74.1782 105.059C74.1782 105.068 74.1782 105.077 74.1782 105.085C74.1782 105.094 74.1782 105.103 74.1782 105.111C74.1782 105.12 74.1782 105.129 74.1782 105.137C74.1782 105.146 74.1782 105.154 74.1782 105.162C74.1782 105.171 74.1782 105.179 74.1782 105.187C74.1782 105.195 74.1782 105.203 74.1782 105.211C74.1782 105.219 74.1782 105.227 74.1782 105.235C74.1782 105.243 74.1782 105.25 74.1782 105.258C74.1782 105.266 74.1782 105.273 74.1782 105.281C74.1782 105.288 74.1782 105.296 74.1782 105.303C74.1782 105.31 74.1782 105.318 74.1782 105.325C74.1782 105.332 74.1782 105.339 74.1782 105.346C74.1782 105.353 74.1782 105.36 74.1782 105.367C74.1782 105.374 74.1782 105.38 74.1782 105.387C74.1782 105.394 74.1782 105.4 74.1782 105.407C74.1782 105.414 74.1782 105.42 74.1782 105.426C74.1782 105.433 74.1782 105.439 74.1782 105.445C74.1782 105.451 74.1782 105.457 74.1782 105.464C74.1782 105.47 74.1782 105.476 74.1782 105.481C74.1782 105.487 74.1782 105.493 74.1782 105.499C74.1782 105.504 74.1782 105.51 74.1782 105.516C74.1782 105.521 74.1782 105.527 74.1782 105.532C74.1782 105.537 74.1782 105.543 74.1782 105.548C74.1782 105.553 74.1782 105.558 74.1782 105.563C74.1782 105.568 74.1782 105.573 74.1782 105.578C74.1782 105.583 74.1782 105.588 74.1782 105.593C74.1782 105.597 74.1782 105.602 74.1782 105.606H75.8257C75.8257 105.602 75.8257 105.597 75.8257 105.593C75.8257 105.588 75.8257 105.583 75.8257 105.578C75.8257 105.573 75.8257 105.568 75.8257 105.563C75.8257 105.558 75.8257 105.553 75.8257 105.548C75.8257 105.543 75.8257 105.537 75.8257 105.532C75.8257 105.527 75.8257 105.521 75.8257 105.516C75.8257 105.51 75.8257 105.504 75.8257 105.499C75.8257 105.493 75.8257 105.487 75.8257 105.481C75.8257 105.476 75.8257 105.47 75.8257 105.464C75.8257 105.457 75.8257 105.451 75.8257 105.445C75.8257 105.439 75.8257 105.433 75.8257 105.426C75.8257 105.42 75.8257 105.414 75.8257 105.407C75.8257 105.4 75.8257 105.394 75.8257 105.387C75.8257 105.38 75.8257 105.374 75.8257 105.367C75.8257 105.36 75.8257 105.353 75.8257 105.346C75.8257 105.339 75.8257 105.332 75.8257 105.325C75.8257 105.318 75.8257 105.31 75.8257 105.303C75.8257 105.296 75.8257 105.288 75.8257 105.281C75.8257 105.273 75.8257 105.266 75.8257 105.258C75.8257 105.25 75.8257 105.243 75.8257 105.235C75.8257 105.227 75.8257 105.219 75.8257 105.211C75.8257 105.203 75.8257 105.195 75.8257 105.187C75.8257 105.179 75.8257 105.171 75.8257 105.162C75.8257 105.154 75.8257 105.146 75.8257 105.137C75.8257 105.129 75.8257 105.12 75.8257 105.111C75.8257 105.103 75.8257 105.094 75.8257 105.085C75.8257 105.077 75.8257 105.068 75.8257 105.059C75.8257 105.05 75.8257 105.041 75.8257 105.032C75.8257 105.023 75.8257 105.014 75.8257 105.004C75.8257 104.995 75.8257 104.986 75.8257 104.976C75.8257 104.967 75.8257 104.957 75.8257 104.948C75.8257 104.938 75.8257 104.929 75.8257 104.919C75.8257 104.909 75.8257 104.899 75.8257 104.89C75.8257 104.88 75.8257 104.87 75.8257 104.86C75.8257 104.85 75.8257 104.84 75.8257 104.829C75.8257 104.819 75.8257 104.809 75.8257 104.799C75.8257 104.788 75.8257 104.778 75.8257 104.767C75.8257 104.757 75.8257 104.746 75.8257 104.736C75.8257 104.725 75.8257 104.714 75.8257 104.703C75.8257 104.693 75.8257 104.682 75.8257 104.671C75.8257 104.66 75.8257 104.649 75.8257 104.638C75.8257 104.627 75.8257 104.615 75.8257 104.604C75.8257 104.593 75.8257 104.582 75.8257 104.57C75.8257 104.559 75.8257 104.547 75.8257 104.536C75.8257 104.524 75.8257 104.512 75.8257 104.501C75.8257 104.489 75.8257 104.477 75.8257 104.465C75.8257 104.453 75.8257 104.442 75.8257 104.43C75.8257 104.418 75.8257 104.405 75.8257 104.393C75.8257 104.381 75.8257 104.369 75.8257 104.357C75.8257 104.344 75.8257 104.332 75.8257 104.319C75.8257 104.307 75.8257 104.294 75.8257 104.282C75.8257 104.269 75.8257 104.256 75.8257 104.244C75.8257 104.231 75.8257 104.218 75.8257 104.205C75.8257 104.192 75.8257 104.179 75.8257 104.166C75.8257 104.153 75.8257 104.14 75.8257 104.127C75.8257 104.113 75.8257 104.1 75.8257 104.087C75.8257 104.073 75.8257 104.06 75.8257 104.047C75.8257 104.033 75.8257 104.019 75.8257 104.006C75.8257 103.992 75.8257 103.978 75.8257 103.965C75.8257 103.951 75.8257 103.937 75.8257 103.923C75.8257 103.909 75.8257 103.895 75.8257 103.881C75.8257 103.867 75.8257 103.853 75.8257 103.838C75.8257 103.824 75.8257 103.81 75.8257 103.795C75.8257 103.781 75.8257 103.767 75.8257 103.752C75.8257 103.738 75.8257 103.723 75.8257 103.708C75.8257 103.694 75.8257 103.679 75.8257 103.664C75.8257 103.649 75.8257 103.634 75.8257 103.619C75.8257 103.604 75.8257 103.589 75.8257 103.574C75.8257 103.559 75.8257 103.544 75.8257 103.529C75.8257 103.513 75.8257 103.498 75.8257 103.483C75.8257 103.467 75.8257 103.452 75.8257 103.436C75.8257 103.421 75.8257 103.405 75.8257 103.39C75.8257 103.374 75.8257 103.358 75.8257 103.342C75.8257 103.326 75.8257 103.311 75.8257 103.295C75.8257 103.279 75.8257 103.263 75.8257 103.247C75.8257 103.23 75.8257 103.214 75.8257 103.198C75.8257 103.182 75.8257 103.165 75.8257 103.149C75.8257 103.133 75.8257 103.116 75.8257 103.1C75.8257 103.083 75.8257 103.067 75.8257 103.05C75.8257 103.033 75.8257 103.017 75.8257 103C75.8257 102.983 75.8257 102.966 75.8257 102.949C75.8257 102.932 75.8257 102.915 75.8257 102.898C75.8257 102.881 75.8257 102.864 75.8257 102.847C75.8257 102.829 75.8257 102.812 75.8257 102.795C75.8257 102.777 75.8257 102.76 75.8257 102.743C75.8257 102.725 75.8257 102.707 75.8257 102.69C75.8257 102.672 75.8257 102.654 75.8257 102.637C75.8257 102.619 75.8257 102.601 75.8257 102.583C75.8257 102.565 75.8257 102.547 75.8257 102.529C75.8257 102.511 75.8257 102.493 75.8257 102.475C75.8257 102.457 75.8257 102.439 75.8257 102.42C75.8257 102.402 75.8257 102.384 75.8257 102.365C75.8257 102.347 75.8257 102.328 75.8257 102.31C75.8257 102.291 75.8257 102.272 75.8257 102.254C75.8257 102.235 75.8257 102.216 75.8257 102.197C75.8257 102.178 75.8257 102.16 75.8257 102.141C75.8257 102.122 75.8257 102.102 75.8257 102.083C75.8257 102.064 75.8257 102.045 75.8257 102.026C75.8257 102.007 75.8257 101.987 75.8257 101.968C75.8257 101.949 75.8257 101.929 75.8257 101.91C75.8257 101.89 75.8257 101.87 75.8257 101.851C75.8257 101.831 75.8257 101.811 75.8257 101.792C75.8257 101.772 75.8257 101.752 75.8257 101.732C75.8257 101.712 75.8257 101.692 75.8257 101.672C75.8257 101.652 75.8257 101.632 75.8257 101.612C75.8257 101.592 75.8257 101.571 75.8257 101.551C75.8257 101.531 75.8257 101.511 75.8257 101.49C75.8257 101.47 75.8257 101.449 75.8257 101.429C75.8257 101.408 75.8257 101.387 75.8257 101.367C75.8257 101.346 75.8257 101.325 75.8257 101.304C75.8257 101.284 75.8257 101.263 75.8257 101.242C75.8257 101.221 75.8257 101.2 75.8257 101.179C75.8257 101.158 75.8257 101.137 75.8257 101.115C75.8257 101.094 75.8257 101.073 75.8257 101.052C75.8257 101.03 75.8257 101.009 75.8257 100.987C75.8257 100.966 75.8257 100.944 75.8257 100.923C75.8257 100.901 75.8257 100.88 75.8257 100.858C75.8257 100.836 75.8257 100.814 75.8257 100.793C75.8257 100.771 75.8257 100.749 75.8257 100.727C75.8257 100.705 75.8257 100.683 75.8257 100.661C75.8257 100.639 75.8257 100.617 75.8257 100.594C75.8257 100.572 75.8257 100.55 75.8257 100.528C75.8257 100.505 75.8257 100.483 75.8257 100.46C75.8257 100.438 75.8257 100.415 75.8257 100.393C75.8257 100.37 75.8257 100.348 75.8257 100.325C75.8257 100.302 75.8257 100.279 75.8257 100.257C75.8257 100.234 75.8257 100.211 75.8257 100.188C75.8257 100.165 75.8257 100.142 75.8257 100.119C75.8257 100.096 75.8257 100.073 75.8257 100.049C75.8257 100.026 75.8257 100.003 75.8257 99.9797C75.8257 99.9564 75.8257 99.933 75.8257 99.9096C75.8257 99.8862 75.8257 99.8626 75.8257 99.8391C75.8257 99.8155 75.8257 99.7919 75.8257 99.7682C75.8257 99.7445 75.8257 99.7208 75.8257 99.697C75.8257 99.6732 75.8257 99.6493 75.8257 99.6254C75.8257 99.6015 75.8257 99.5775 75.8257 99.5535C75.8257 99.5294 75.8257 99.5053 75.8257 99.4812C75.8257 99.457 75.8257 99.4328 75.8257 99.4085C75.8257 99.3842 75.8257 99.3599 75.8257 99.3355C75.8257 99.3111 75.8257 99.2867 75.8257 99.2621C75.8257 99.2376 75.8257 99.213 75.8257 99.1884C75.8257 99.1638 75.8257 99.1391 75.8257 99.1143C75.8257 99.0896 75.8257 99.0648 75.8257 99.0399C75.8257 99.015 75.8257 98.9901 75.8257 98.9651C75.8257 98.9401 75.8257 98.9151 75.8257 98.89C75.8257 98.8649 75.8257 98.8397 75.8257 98.8145C75.8257 98.7893 75.8257 98.764 75.8257 98.7387C75.8257 98.7134 75.8257 98.688 75.8257 98.6625C75.8257 98.6371 75.8257 98.6116 75.8257 98.586C75.8257 98.5604 75.8257 98.5348 75.8257 98.5091C75.8257 98.4835 75.8257 98.4577 75.8257 98.4319C75.8257 98.4061 75.8257 98.3803 75.8257 98.3544C75.8257 98.3285 75.8257 98.3025 75.8257 98.2765C75.8257 98.2505 75.8257 98.2244 75.8257 98.1983C75.8257 98.1721 75.8257 98.146 75.8257 98.1197C75.8257 98.0935 75.8257 98.0672 75.8257 98.0408C75.8257 98.0144 75.8257 97.988 75.8257 97.9616C75.8257 97.9351 75.8257 97.9086 75.8257 97.882C75.8257 97.8554 75.8257 97.8288 75.8257 97.8021C75.8257 97.7754 75.8257 97.7486 75.8257 97.7218C75.8257 97.695 75.8257 97.6681 75.8257 97.6412C75.8257 97.6143 75.8257 97.5873 75.8257 97.5603C75.8257 97.5333 75.8257 97.5062 75.8257 97.4791C75.8257 97.4519 75.8257 97.4247 75.8257 97.3975C75.8257 97.3702 75.8257 97.3429 75.8257 97.3156C75.8257 97.2882 75.8257 97.2608 75.8257 97.2334C75.8257 97.2059 75.8257 97.1784 75.8257 97.1508C75.8257 97.1232 75.8257 97.0956 75.8257 97.0679C75.8257 97.0402 75.8257 97.0125 75.8257 96.9847C75.8257 96.9569 75.8257 96.9291 75.8257 96.9012C75.8257 96.8733 75.8257 96.8453 75.8257 96.8173C75.8257 96.7893 75.8257 96.7613 75.8257 96.7332C75.8257 96.705 75.8257 96.6769 75.8257 96.6487C75.8257 96.6204 75.8257 96.5922 75.8257 96.5639C75.8257 96.5355 75.8257 96.5071 75.8257 96.4787C75.8257 96.4503 75.8257 96.4218 75.8257 96.3933C75.8257 96.3647 75.8257 96.3362 75.8257 96.3075C75.8257 96.2789 75.8257 96.2502 75.8257 96.2214C75.8257 96.1927 75.8257 96.1639 75.8257 96.135C75.8257 96.1062 75.8257 96.0773 75.8257 96.0483C75.8257 96.0194 75.8257 95.9904 75.8257 95.9613C75.8257 95.9323 75.8257 95.9031 75.8257 95.874C75.8257 95.8448 75.8257 95.8156 75.8257 95.7863C75.8257 95.7571 75.8257 95.7278 75.8257 95.6984C75.8257 95.669 75.8257 95.6396 75.8257 95.6101C75.8257 95.5807 75.8257 95.5512 75.8257 95.5216C75.8257 95.492 75.8257 95.4624 75.8257 95.4327C75.8257 95.4031 75.8257 95.3733 75.8257 95.3436C75.8257 95.3138 75.8257 95.284 75.8257 95.2541C75.8257 95.2242 75.8257 95.1943 75.8257 95.1643C75.8257 95.1343 75.8257 95.1043 75.8257 95.0742C75.8257 95.0442 75.8257 95.014 75.8257 94.9838C75.8257 94.9537 75.8257 94.9234 75.8257 94.8932C75.8257 94.8629 75.8257 94.8326 75.8257 94.8022C75.8257 94.7718 75.8257 94.7414 75.8257 94.7109C75.8257 94.6805 75.8257 94.6499 75.8257 94.6194C75.8257 94.5888 75.8257 94.5582 75.8257 94.5275C75.8257 94.4968 75.8257 94.4661 75.8257 94.4353C75.8257 94.4046 75.8257 94.3738 75.8257 94.3429C75.8257 94.312 75.8257 94.2811 75.8257 94.2502C75.8257 94.2192 75.8257 94.1882 75.8257 94.1571C75.8257 94.1261 75.8257 94.095 75.8257 94.0638C75.8257 94.0327 75.8257 94.0014 75.8257 93.9702C75.8257 93.9389 75.8257 93.9076 75.8257 93.8763C75.8257 93.845 75.8257 93.8136 75.8257 93.7821C75.8257 93.7507 75.8257 93.7192 75.8257 93.6877C75.8257 93.6561 75.8257 93.6245 75.8257 93.5929C75.8257 93.5613 75.8257 93.5296 75.8257 93.4979C75.8257 93.4661 75.8257 93.4344 75.8257 93.4025C75.8257 93.3707 75.8257 93.3389 75.8257 93.3069C75.8257 93.275 75.8257 93.2431 75.8257 93.2111C75.8257 93.1791 75.8257 93.147 75.8257 93.1149C75.8257 93.0828 75.8257 93.0507 75.8257 93.0185C75.8257 92.9863 75.8257 92.954 75.8257 92.9218C75.8257 92.8895 75.8257 92.8572 75.8257 92.8248C75.8257 92.7924 75.8257 92.76 75.8257 92.7275C75.8257 92.695 75.8257 92.6625 75.8257 92.63C75.8257 92.5974 75.8257 92.5648 75.8257 92.5322C75.8257 92.4995 75.8257 92.4668 75.8257 92.4341C75.8257 92.4013 75.8257 92.3686 75.8257 92.3357C75.8257 92.3029 75.8257 92.27 75.8257 92.2371C75.8257 92.2042 75.8257 92.1712 75.8257 92.1382C75.8257 92.1052 75.8257 92.0722 75.8257 92.0391C75.8257 92.006 75.8257 91.9728 75.8257 91.9396C75.8257 91.9065 75.8257 91.8732 75.8257 91.84C75.8257 91.8067 75.8257 91.7734 75.8257 91.74C75.8257 91.7066 75.8257 91.6732 75.8257 91.6398C75.8257 91.6063 75.8257 91.5728 75.8257 91.5393C75.8257 91.5058 75.8257 91.4722 75.8257 91.4386C75.8257 91.4049 75.8257 91.3713 75.8257 91.3376C75.8257 91.3039 75.8257 91.2701 75.8257 91.2363C75.8257 91.2025 75.8257 91.1687 75.8257 91.1348C75.8257 91.1009 75.8257 91.067 75.8257 91.033C75.8257 90.9991 75.8257 90.965 75.8257 90.931C75.8257 90.8969 75.8257 90.8628 75.8257 90.8287C75.8257 90.7946 75.8257 90.7604 75.8257 90.7262C75.8257 90.692 75.8257 90.6577 75.8257 90.6234C75.8257 90.5891 75.8257 90.5547 75.8257 90.5203C75.8257 90.486 75.8257 90.4515 75.8257 90.4171C75.8257 90.3826 75.8257 90.3481 75.8257 90.3135C75.8257 90.279 75.8257 90.2444 75.8257 90.2097C75.8257 90.1751 75.8257 90.1404 75.8257 90.1057C75.8257 90.071 75.8257 90.0362 75.8257 90.0014C75.8257 89.9666 75.8257 89.9318 75.8257 89.8969C75.8257 89.862 75.8257 89.8271 75.8257 89.7921C75.8257 89.7571 75.8257 89.7221 75.8257 89.6871C75.8257 89.652 75.8257 89.617 75.8257 89.5818C75.8257 89.5467 75.8257 89.5115 75.8257 89.4763C75.8257 89.4411 75.8257 89.4059 75.8257 89.3706C75.8257 89.3353 75.8257 89.3 75.8257 89.2646C75.8257 89.2292 75.8257 89.1938 75.8257 89.1584C75.8257 89.123 75.8257 89.0875 75.8257 89.0519C75.8257 89.0164 75.8257 88.9809 75.8257 88.9453C75.8257 88.9097 75.8257 88.874 75.8257 88.8383C75.8257 88.8027 75.8257 88.7669 75.8257 88.7312C75.8257 88.6954 75.8257 88.6596 75.8257 88.6238C75.8257 88.588 75.8257 88.5521 75.8257 88.5162C75.8257 88.4803 75.8257 88.4443 75.8257 88.4083C75.8257 88.3723 75.8257 88.3363 75.8257 88.3002C75.8257 88.2642 75.8257 88.2281 75.8257 88.1919C75.8257 88.1558 75.8257 88.1196 75.8257 88.0834C75.8257 88.0472 75.8257 88.0109 75.8257 87.9746C75.8257 87.9384 75.8257 87.902 75.8257 87.8657C75.8257 87.8293 75.8257 87.7929 75.8257 87.7564C75.8257 87.72 75.8257 87.6835 75.8257 87.647C75.8257 87.6105 75.8257 87.5739 75.8257 87.5374C75.8257 87.5008 75.8257 87.4641 75.8257 87.4275C75.8257 87.3908 75.8257 87.3541 75.8257 87.3174C75.8257 87.2807 75.8257 87.2439 75.8257 87.2071C75.8257 87.1703 75.8257 87.1334 75.8257 87.0965C75.8257 87.0597 75.8257 87.0227 75.8257 86.9858C75.8257 86.9488 75.8257 86.9118 75.8257 86.8748C75.8257 86.8378 75.8257 86.8007 75.8257 86.7636C75.8257 86.7265 75.8257 86.6894 75.8257 86.6523C75.8257 86.6151 75.8257 86.5779 75.8257 86.5406C75.8257 86.5034 75.8257 86.4661 75.8257 86.4288C75.8257 86.3915 75.8257 86.3542 75.8257 86.3168C75.8257 86.2794 75.8257 86.242 75.8257 86.2046C75.8257 86.1671 75.8257 86.1296 75.8257 86.0921C75.8257 86.0546 75.8257 86.0171 75.8257 85.9795C75.8257 85.9419 75.8257 85.9043 75.8257 85.8666C75.8257 85.829 75.8257 85.7913 75.8257 85.7535C75.8257 85.7158 75.8257 85.6781 75.8257 85.6403C75.8257 85.6025 75.8257 85.5647 75.8257 85.5268C75.8257 85.489 75.8257 85.4511 75.8257 85.4131C75.8257 85.3752 75.8257 85.3373 75.8257 85.2993C75.8257 85.2613 75.8257 85.2233 75.8257 85.1852C75.8257 85.1471 75.8257 85.109 75.8257 85.0709C75.8257 85.0328 75.8257 84.9946 75.8257 84.9565C75.8257 84.9183 75.8257 84.88 75.8257 84.8418C75.8257 84.8035 75.8257 84.7652 75.8257 84.7269C75.8257 84.6886 75.8257 84.6503 75.8257 84.6119C75.8257 84.5735 75.8257 84.5351 75.8257 84.4966C75.8257 84.4582 75.8257 84.4197 75.8257 84.3812C75.8257 84.3427 75.8257 84.3041 75.8257 84.2655C75.8257 84.227 75.8257 84.1884 75.8257 84.1497C75.8257 84.1111 75.8257 84.0724 75.8257 84.0337C75.8257 83.995 75.8257 83.9563 75.8257 83.9175C75.8257 83.8787 75.8257 83.84 75.8257 83.8011C75.8257 83.7623 75.8257 83.7234 75.8257 83.6846C75.8257 83.6457 75.8257 83.6067 75.8257 83.5678C75.8257 83.5288 75.8257 83.4899 75.8257 83.4509C75.8257 83.4118 75.8257 83.3728 75.8257 83.3337C75.8257 83.2947 75.8257 83.2555 75.8257 83.2164C75.8257 83.1773 75.8257 83.1381 75.8257 83.0989C75.8257 83.0597 75.8257 83.0205 75.8257 82.9813C75.8257 82.942 75.8257 82.9027 75.8257 82.8634C75.8257 82.8241 75.8257 82.7848 75.8257 82.7454C75.8257 82.706 75.8257 82.6666 75.8257 82.6272C75.8257 82.5878 75.8257 82.5483 75.8257 82.5088C75.8257 82.4693 75.8257 82.4298 75.8257 82.3903C75.8257 82.3507 75.8257 82.3111 75.8257 82.2715C75.8257 82.2319 75.8257 82.1923 75.8257 82.1526C75.8257 82.113 75.8257 82.0733 75.8257 82.0336C75.8257 81.9939 75.8257 81.9541 75.8257 81.9143C75.8257 81.8746 75.8257 81.8348 75.8257 81.7949C75.8257 81.7551 75.8257 81.7152 75.8257 81.6754C75.8257 81.6355 75.8257 81.5956 75.8257 81.5556C75.8257 81.5157 75.8257 81.4757 75.8257 81.4357C75.8257 81.3957 75.8257 81.3557 75.8257 81.3156C75.8257 81.2756 75.8257 81.2355 75.8257 81.1954C75.8257 81.1553 75.8257 81.1152 75.8257 81.075C75.8257 81.0348 75.8257 80.9947 75.8257 80.9544C75.8257 80.9142 75.8257 80.874 75.8257 80.8337C75.8257 80.7934 75.8257 80.7532 75.8257 80.7128C75.8257 80.6725 75.8257 80.6322 75.8257 80.5918C75.8257 80.5514 75.8257 80.511 75.8257 80.4706C75.8257 80.4302 75.8257 80.3897 75.8257 80.3492C75.8257 80.3088 75.8257 80.2683 75.8257 80.2277C75.8257 80.1872 75.8257 80.1466 75.8257 80.1061C75.8257 80.0655 75.8257 80.0249 75.8257 79.9842C75.8257 79.9436 75.8257 79.903 75.8257 79.8623C75.8257 79.8216 75.8257 79.7809 75.8257 79.7402C75.8257 79.6994 75.8257 79.6587 75.8257 79.6179C75.8257 79.5771 75.8257 79.5363 75.8257 79.4955C75.8257 79.4546 75.8257 79.4138 75.8257 79.3729C75.8257 79.332 75.8257 79.2911 75.8257 79.2502C75.8257 79.2093 75.8257 79.1683 75.8257 79.1273C75.8257 79.0863 75.8257 79.0453 75.8257 79.0043C75.8257 78.9633 75.8257 78.9222 75.8257 78.8812C75.8257 78.8401 75.8257 78.799 75.8257 78.7579C75.8257 78.7168 75.8257 78.6756 75.8257 78.6344C75.8257 78.5933 75.8257 78.5521 75.8257 78.5109C75.8257 78.4697 75.8257 78.4284 75.8257 78.3872C75.8257 78.3459 75.8257 78.3046 75.8257 78.2633C75.8257 78.222 75.8257 78.1807 75.8257 78.1393C75.8257 78.098 75.8257 78.0566 75.8257 78.0152C75.8257 77.9738 75.8257 77.9324 75.8257 77.8909C75.8257 77.8495 75.8257 77.808 75.8257 77.7665C75.8257 77.725 75.8257 77.6835 75.8257 77.642C75.8257 77.6005 75.8257 77.5589 75.8257 77.5173C75.8257 77.4758 75.8257 77.4342 75.8257 77.3925C75.8257 77.3509 75.8257 77.3093 75.8257 77.2676C75.8257 77.226 75.8257 77.1843 75.8257 77.1426C75.8257 77.1009 75.8257 77.0591 75.8257 77.0174C75.8257 76.9756 75.8257 76.9339 75.8257 76.8921C75.8257 76.8503 75.8257 76.8085 75.8257 76.7666C75.8257 76.7248 75.8257 76.683 75.8257 76.6411C75.8257 76.5992 75.8257 76.5573 75.8257 76.5154C75.8257 76.4735 75.8257 76.4316 75.8257 76.3896C75.8257 76.3476 75.8257 76.3057 75.8257 76.2637C75.8257 76.2217 75.8257 76.1797 75.8257 76.1376C75.8257 76.0956 75.8257 76.0535 75.8257 76.0115C75.8257 75.9694 75.8257 75.9273 75.8257 75.8852C75.8257 75.8431 75.8257 75.8009 75.8257 75.7588C75.8257 75.7166 75.8257 75.6745 75.8257 75.6323C75.8257 75.5901 75.8257 75.5479 75.8257 75.5056C75.8257 75.4634 75.8257 75.4212 75.8257 75.3789C75.8257 75.3366 75.8257 75.2943 75.8257 75.252C75.8257 75.2097 75.8257 75.1674 75.8257 75.125C75.8257 75.0827 75.8257 75.0403 75.8257 74.998C75.8257 74.9556 75.8257 74.9132 75.8257 74.8708C75.8257 74.8284 75.8257 74.7859 75.8257 74.7435C75.8257 74.701 75.8257 74.6585 75.8257 74.6161C75.8257 74.5736 75.8257 74.5311 75.8257 74.4885C75.8257 74.446 75.8257 74.4035 75.8257 74.3609C75.8257 74.3184 75.8257 74.2758 75.8257 74.2332C75.8257 74.1906 75.8257 74.148 75.8257 74.1054C75.8257 74.0627 75.8257 74.0201 75.8257 73.9774C75.8257 73.9348 75.8257 73.8921 75.8257 73.8494C75.8257 73.8067 75.8257 73.764 75.8257 73.7213C75.8257 73.6785 75.8257 73.6358 75.8257 73.593C75.8257 73.5503 75.8257 73.5075 75.8257 73.4647C75.8257 73.4219 75.8257 73.3791 75.8257 73.3363C75.8257 73.2934 75.8257 73.2506 75.8257 73.2077C75.8257 73.1649 75.8257 73.122 75.8257 73.0791C75.8257 73.0362 75.8257 72.9933 75.8257 72.9504C75.8257 72.9075 75.8257 72.8645 75.8257 72.8216C75.8257 72.7786 75.8257 72.7357 75.8257 72.6927C75.8257 72.6497 75.8257 72.6067 75.8257 72.5637C75.8257 72.5207 75.8257 72.4776 75.8257 72.4346C75.8257 72.3916 75.8257 72.3485 75.8257 72.3054C75.8257 72.2624 75.8257 72.2193 75.8257 72.1762C75.8257 72.1331 75.8257 72.09 75.8257 72.0468C75.8257 72.0037 75.8257 71.9605 75.8257 71.9174C75.8257 71.8742 75.8257 71.8311 75.8257 71.7879C75.8257 71.7447 75.8257 71.7015 75.8257 71.6583C75.8257 71.6151 75.8257 71.5718 75.8257 71.5286C75.8257 71.4853 75.8257 71.4421 75.8257 71.3988C75.8257 71.3556 75.8257 71.3123 75.8257 71.269C75.8257 71.2257 75.8257 71.1824 75.8257 71.1391C75.8257 71.0957 75.8257 71.0524 75.8257 71.0091C75.8257 70.9657 75.8257 70.9223 75.8257 70.879C75.8257 70.8356 75.8257 70.7922 75.8257 70.7488C75.8257 70.7054 75.8257 70.662 75.8257 70.6186C75.8257 70.5752 75.8257 70.5317 75.8257 70.4883C75.8257 70.4448 75.8257 70.4014 75.8257 70.3579C75.8257 70.3144 75.8257 70.2709 75.8257 70.2275C75.8257 70.184 75.8257 70.1404 75.8257 70.0969C75.8257 70.0534 75.8257 70.0099 75.8257 69.9663C75.8257 69.9228 75.8257 69.8792 75.8257 69.8357C75.8257 69.7921 75.8257 69.7485 75.8257 69.705C75.8257 69.6614 75.8257 69.6178 75.8257 69.5742C75.8257 69.5305 75.8257 69.4869 75.8257 69.4433C75.8257 69.3997 75.8257 69.356 75.8257 69.3124C75.8257 69.2687 75.8257 69.2251 75.8257 69.1814C75.8257 69.1377 75.8257 69.094 75.8257 69.0503C75.8257 69.0066 75.8257 68.9629 75.8257 68.9192C75.8257 68.8755 75.8257 68.8318 75.8257 68.788C75.8257 68.7443 75.8257 68.7006 75.8257 68.6568C75.8257 68.6131 75.8257 68.5693 75.8257 68.5255C75.8257 68.4818 75.8257 68.438 75.8257 68.3942C75.8257 68.3504 75.8257 68.3066 75.8257 68.2628C75.8257 68.219 75.8257 68.1751 75.8257 68.1313C75.8257 68.0875 75.8257 68.0437 75.8257 67.9998C75.8257 67.956 75.8257 67.9121 75.8257 67.8682C75.8257 67.8244 75.8257 67.7805 75.8257 67.7366C75.8257 67.6927 75.8257 67.6489 75.8257 67.605C75.8257 67.5611 75.8257 67.5172 75.8257 67.4732C75.8257 67.4293 75.8257 67.3854 75.8257 67.3415C75.8257 67.2975 75.8257 67.2536 75.8257 67.2097C75.8257 67.1657 75.8257 67.1218 75.8257 67.0778C75.8257 67.0338 75.8257 66.9899 75.8257 66.9459C75.8257 66.9019 75.8257 66.8579 75.8257 66.8139C75.8257 66.7699 75.8257 66.726 75.8257 66.6819C75.8257 66.6379 75.8257 66.5939 75.8257 66.5499C75.8257 66.5059 75.8257 66.4619 75.8257 66.4178C75.8257 66.3738 75.8257 66.3298 75.8257 66.2857C75.8257 66.2417 75.8257 66.1976 75.8257 66.1536C75.8257 66.1095 75.8257 66.0654 75.8257 66.0214C75.8257 65.9773 75.8257 65.9332 75.8257 65.8891C75.8257 65.845 75.8257 65.801 75.8257 65.7569C75.8257 65.7128 75.8257 65.6687 75.8257 65.6246C75.8257 65.5804 75.8257 65.5363 75.8257 65.4922C75.8257 65.4481 75.8257 65.404 75.8257 65.3598C75.8257 65.3157 75.8257 65.2716 75.8257 65.2274C75.8257 65.1833 75.8257 65.1392 75.8257 65.095C75.8257 65.0509 75.8257 65.0067 75.8257 64.9625C75.8257 64.9184 75.8257 64.8742 75.8257 64.8301C75.8257 64.7859 75.8257 64.7417 75.8257 64.6975C75.8257 64.6534 75.8257 64.6092 75.8257 64.565C75.8257 64.5208 75.8257 64.4766 75.8257 64.4324C75.8257 64.3882 75.8257 64.344 75.8257 64.2998C75.8257 64.2556 75.8257 64.2114 75.8257 64.1672C75.8257 64.123 75.8257 64.0788 75.8257 64.0346C75.8257 63.9903 75.8257 63.9461 75.8257 63.9019C75.8257 63.8577 75.8257 63.8134 75.8257 63.7692C75.8257 63.725 75.8257 63.6807 75.8257 63.6365C75.8257 63.5923 75.8257 63.548 75.8257 63.5038C75.8257 63.4595 75.8257 63.4153 75.8257 63.3711C75.8257 63.3268 75.8257 63.2826 75.8257 63.2383C75.8257 63.194 75.8257 63.1498 75.8257 63.1055C75.8257 63.0613 75.8257 63.017 75.8257 62.9727C75.8257 62.9285 75.8257 62.8842 75.8257 62.84C75.8257 62.7957 75.8257 62.7514 75.8257 62.7071C75.8257 62.6629 75.8257 62.6186 75.8257 62.5743C75.8257 62.5301 75.8257 62.4858 75.8257 62.4415C75.8257 62.3972 75.8257 62.3529 75.8257 62.3087C75.8257 62.2644 75.8257 62.2201 75.8257 62.1758C75.8257 62.1315 75.8257 62.0873 75.8257 62.043C75.8257 61.9987 75.8257 61.9544 75.8257 61.9101C75.8257 61.8658 75.8257 61.8215 75.8257 61.7773C75.8257 61.733 75.8257 61.6887 75.8257 61.6444C75.8257 61.6001 75.8257 61.5558 75.8257 61.5115C75.8257 61.4672 75.8257 61.4229 75.8257 61.3787C75.8257 61.3344 75.8257 61.2901 75.8257 61.2458C75.8257 61.2015 75.8257 61.1572 75.8257 61.1129C75.8257 61.0686 75.8257 61.0243 75.8257 60.9801C75.8257 60.9358 75.8257 60.8915 75.8257 60.8472C75.8257 60.8029 75.8257 60.7586 75.8257 60.7143C75.8257 60.6701 75.8257 60.6258 75.8257 60.5815C75.8257 60.5372 75.8257 60.4929 75.8257 60.4486C75.8257 60.4044 75.8257 60.3601 75.8257 60.3158C75.8257 60.2715 75.8257 60.2273 75.8257 60.183C75.8257 60.1387 75.8257 60.0944 75.8257 60.0502C75.8257 60.0059 75.8257 59.9616 75.8257 59.9174C75.8257 59.8731 75.8257 59.8288 75.8257 59.7845C75.8257 59.7403 75.8257 59.696 75.8257 59.6518C75.8257 59.6075 75.8257 59.5632 75.8257 59.519C75.8257 59.4747 75.8257 59.4305 75.8257 59.3862C75.8257 59.342 75.8257 59.2977 75.8257 59.2535C75.8257 59.2092 75.8257 59.165 75.8257 59.1208C75.8257 59.0765 75.8257 59.0323 75.8257 58.9881C75.8257 58.9438 75.8257 58.8996 75.8257 58.8554C75.8257 58.8111 75.8257 58.7669 75.8257 58.7227C75.8257 58.6785 75.8257 58.6343 75.8257 58.5901C75.8257 58.5458 75.8257 58.5016 75.8257 58.4574C75.8257 58.4132 75.8257 58.369 75.8257 58.3248C75.8257 58.2806 75.8257 58.2364 75.8257 58.1922C75.8257 58.1481 75.8257 58.1039 75.8257 58.0597C75.8257 58.0155 75.8257 57.9713 75.8257 57.9272C75.8257 57.883 75.8257 57.8388 75.8257 57.7947C75.8257 57.7505 75.8257 57.7063 75.8257 57.6622C75.8257 57.618 75.8257 57.5739 75.8257 57.5298C75.8257 57.4856 75.8257 57.4415 75.8257 57.3973C75.8257 57.3532 75.8257 57.3091 75.8257 57.265C75.8257 57.2208 75.8257 57.1767 75.8257 57.1326C75.8257 57.0885 75.8257 57.0444 75.8257 57.0003C75.8257 56.9562 75.8257 56.9121 75.8257 56.868C75.8257 56.8239 75.8257 56.7799 75.8257 56.7358C75.8257 56.6917 75.8257 56.6476 75.8257 56.6036C75.8257 56.5595 75.8257 56.5154 75.8257 56.4714H74.1782ZM74.1782 105.606C74.1782 106.455 73.836 107.218 73.2237 107.955C72.6025 108.702 71.7344 109.383 70.7598 110.04C70.2759 110.367 69.7775 110.68 69.2805 110.99C68.7879 111.297 68.2921 111.604 67.8338 111.907C66.9455 112.495 66.0663 113.149 65.5691 113.905L66.9457 114.81C67.2361 114.369 67.8438 113.876 68.7428 113.281C69.1781 112.993 69.6511 112.7 70.1525 112.388C70.6494 112.078 71.1703 111.751 71.681 111.406C72.6956 110.722 73.7184 109.937 74.4906 109.008C75.2718 108.068 75.8257 106.945 75.8257 105.606H74.1782ZM65.5736 113.898C65.4997 114.008 65.3349 114.154 64.9867 114.292C64.6417 114.43 64.1772 114.536 63.593 114.605C62.4236 114.745 60.9156 114.724 59.2333 114.626C57.5558 114.528 55.7593 114.356 54.007 114.206C52.2683 114.058 50.5713 113.931 49.142 113.931V115.578C50.4924 115.578 52.1248 115.699 53.8668 115.848C55.5951 115.995 57.4303 116.17 59.137 116.27C60.8388 116.37 62.4673 116.399 63.7883 116.241C64.4492 116.162 65.0683 116.033 65.5956 115.823C66.1195 115.615 66.6155 115.302 66.9411 114.817L65.5736 113.898ZM49.142 113.931C47.895 113.931 47.1227 113.623 46.586 113.184C46.0307 112.73 45.6353 112.061 45.2829 111.169C44.9157 110.238 44.6654 109.274 44.2706 108.111C43.894 107.002 43.4159 105.824 42.6525 104.737L41.3043 105.683C41.9351 106.582 42.3532 107.589 42.7107 108.641C43.05 109.64 43.3718 110.814 43.7505 111.774C44.144 112.77 44.6686 113.744 45.5431 114.459C46.436 115.189 47.6034 115.578 49.142 115.578V113.931ZM42.6539 104.739C41.8375 103.569 40.7952 102.983 39.6591 102.94C38.5682 102.899 37.5288 103.364 36.6696 103.999C35.8028 104.639 35.0472 105.504 34.5052 106.399C33.9716 107.281 33.5945 108.276 33.5945 109.181H35.2419C35.2419 108.692 35.4634 107.998 35.9144 107.253C36.3569 106.522 36.9719 105.824 37.6487 105.324C38.3332 104.818 39.0106 104.564 39.5971 104.587C40.1383 104.607 40.7338 104.866 41.3029 105.681L42.6539 104.739ZM33.5945 109.181C33.5945 109.531 33.4987 109.653 33.4291 109.715C33.3264 109.807 33.1083 109.913 32.6627 109.967C31.7458 110.078 30.4315 109.918 28.7324 109.751L28.5711 111.391C30.1433 111.546 31.7122 111.742 32.8607 111.603C33.4478 111.532 34.058 111.362 34.5253 110.945C35.0258 110.499 35.2419 109.882 35.2419 109.181H33.5945ZM27.9558 111.012C32.2869 117.85 36.0526 125.839 38.0168 132.296L39.5929 131.816C37.5787 125.195 33.7439 117.071 29.3476 110.13L27.9558 111.012ZM38.0162 132.294C39.6347 137.664 42.4098 142.852 44.9971 147.424C47.6164 152.053 49.9872 155.967 50.9512 158.943L52.5185 158.435C51.4875 155.252 48.983 151.123 46.4309 146.613C43.8467 142.046 41.1544 136.997 39.5936 131.818L38.0162 132.294ZM50.9506 158.941C51.9599 162.084 52.9658 164.964 53.2282 167.15C53.3593 168.243 53.2827 169.019 53.0366 169.524C52.825 169.958 52.4405 170.291 51.6205 170.406L51.8492 172.037C53.1191 171.859 54.0274 171.251 54.5175 170.246C54.9732 169.311 55.0073 168.149 54.8639 166.954C54.5772 164.564 53.4933 161.471 52.5192 158.437L50.9506 158.941ZM51.6183 170.406C50.4707 170.57 49.4914 170.955 48.8007 171.654C48.0932 172.37 47.7861 173.317 47.8001 174.393C47.8272 176.464 49.0427 179.225 51.2327 182.615L52.6165 181.721C50.437 178.347 49.4679 175.934 49.4475 174.372C49.4378 173.632 49.6413 173.147 49.9728 172.812C50.321 172.459 50.9091 172.172 51.8514 172.037L51.6183 170.406ZM51.2336 182.616C53.3047 185.808 53.4436 188.316 53.5161 190.199C53.5508 191.099 53.5638 192.067 53.8807 192.827C54.0543 193.244 54.3211 193.617 54.721 193.912C55.1112 194.201 55.587 194.386 56.1377 194.501L56.4733 192.888C56.0782 192.806 55.8447 192.694 55.7006 192.588C55.5662 192.488 55.4736 192.367 55.4015 192.194C55.2268 191.775 55.2024 191.176 55.1624 190.136C55.0855 188.14 54.9254 185.279 52.6156 181.719L51.2336 182.616ZM56.1351 194.5C56.9863 194.68 57.5087 194.938 57.8661 195.197C58.2276 195.459 58.465 195.754 58.7319 196.105C58.9845 196.437 59.308 196.889 59.7932 197.24C60.307 197.612 60.946 197.839 61.8121 197.901L61.9294 196.257C61.3065 196.213 60.9774 196.063 60.7587 195.905C60.5114 195.726 60.338 195.495 60.0437 195.108C59.7636 194.74 59.4042 194.278 58.8335 193.864C58.2586 193.447 57.5133 193.108 56.4759 192.889L56.1351 194.5ZM61.8171 197.901C63.0443 197.981 64.1681 198.634 65.2733 199.666C66.3834 200.703 67.3829 202.032 68.3929 203.345L69.6987 202.34C68.7194 201.067 67.629 199.612 66.3977 198.462C65.1616 197.308 63.6925 196.372 61.9243 196.257L61.8171 197.901ZM68.3909 203.342C70.7303 206.407 75.9945 206.333 78.4705 202.709L77.1102 201.78C75.2282 204.534 71.3167 204.46 69.7006 202.342L68.3909 203.342ZM78.4685 202.712C79.3784 201.392 81.3488 200.407 84.1436 199.77C86.895 199.144 90.259 198.897 93.7099 198.897V197.249C90.1986 197.249 86.6979 197.499 83.7778 198.164C80.9009 198.819 78.3927 199.919 77.1121 201.777L78.4685 202.712ZM93.7099 198.897C95.5088 198.897 96.8202 198.704 97.8822 198.357C98.953 198.008 99.7233 197.517 100.442 196.993C101.828 195.983 103.059 194.829 106.28 193.881L105.815 192.301C102.276 193.342 100.821 194.678 99.4714 195.662C98.8213 196.135 98.2104 196.517 97.371 196.791C96.5228 197.068 95.3951 197.249 93.7099 197.249V198.897ZM106.278 193.882C112.92 191.946 120.898 191.761 126.47 193.691L127.009 192.135C121.036 190.065 112.697 190.295 105.817 192.3L106.278 193.882ZM126.472 193.692C132.561 195.777 137.206 193.868 140.116 192.023L139.234 190.631C136.579 192.315 132.462 194.002 127.006 192.134L126.472 193.692ZM140.122 192.019C140.577 191.725 141.198 191.652 142.034 191.749C142.895 191.85 143.727 192.087 144.684 192.278C145.54 192.449 146.566 192.598 147.424 192.253C148.421 191.853 148.938 190.924 149.056 189.602L147.415 189.455C147.329 190.423 147.022 190.639 146.81 190.724C146.46 190.865 145.893 190.84 145.007 190.663C144.223 190.506 143.165 190.223 142.224 190.113C141.258 190.001 140.165 190.03 139.228 190.635L140.122 192.019ZM149.056 189.599C149.138 188.638 149.477 188.038 149.952 187.626C150.453 187.193 151.183 186.901 152.156 186.726C153.126 186.551 154.259 186.506 155.505 186.508C156.125 186.509 156.761 186.522 157.412 186.535C158.06 186.547 158.721 186.56 159.378 186.56V184.912C158.739 184.912 158.093 184.9 157.444 184.888C156.797 184.875 156.145 184.862 155.508 184.861C154.239 184.859 152.985 184.903 151.865 185.104C150.749 185.305 149.69 185.674 148.874 186.381C148.032 187.11 147.528 188.129 147.415 189.458L149.056 189.599ZM159.378 186.56C160.847 186.56 162.729 185.992 164.813 185.07C166.92 184.138 169.32 182.805 171.854 181.189C176.923 177.954 182.584 173.55 187.595 168.845L186.467 167.644C181.526 172.283 175.945 176.624 170.968 179.8C168.478 181.388 166.154 182.676 164.146 183.564C162.116 184.462 160.492 184.912 159.378 184.912V186.56ZM187.595 168.846C197.604 159.454 214.16 138.904 219.779 129.49L218.364 128.646C212.83 137.918 196.374 158.349 186.468 167.644L187.595 168.846ZM219.779 129.49C225.269 120.279 234.322 112.401 238.927 108.203L237.817 106.986C233.269 111.132 224.005 119.182 218.364 128.646L219.779 129.49ZM238.929 108.202C239.91 107.302 240.729 105.9 241.425 104.266C242.128 102.615 242.738 100.651 243.264 98.5561C244.316 94.3642 245.052 89.5705 245.526 85.5453L243.889 85.3528C243.42 89.3434 242.693 94.0595 241.666 98.1551C241.152 100.203 240.567 102.077 239.91 103.62C239.245 105.179 238.538 106.325 237.815 106.987L238.929 108.202ZM244.721 84.6254C242.326 84.5873 239.785 84.779 237.854 84.978C236.886 85.0778 236.066 85.1799 235.488 85.2572C235.198 85.2959 234.969 85.3283 234.811 85.3512C234.733 85.3627 234.672 85.3717 234.63 85.378C234.61 85.3811 234.594 85.3835 234.583 85.3852C234.578 85.386 234.573 85.3867 234.571 85.3871C234.569 85.3873 234.568 85.3875 234.567 85.3876C234.567 85.3877 234.566 85.3878 234.566 85.3878C234.566 85.3878 234.566 85.3878 234.566 85.3878C234.566 85.3879 234.566 85.3879 234.692 86.2018C234.819 87.0158 234.819 87.0158 234.819 87.0158C234.819 87.0158 234.819 87.0158 234.819 87.0158C234.819 87.0157 234.819 87.0157 234.819 87.0157C234.82 87.0156 234.821 87.0155 234.822 87.0153C234.824 87.015 234.828 87.0144 234.832 87.0137C234.842 87.0122 234.857 87.01 234.876 87.0071C234.915 87.0012 234.973 86.9926 235.049 86.9816C235.2 86.9595 235.423 86.9279 235.706 86.8902C236.271 86.8147 237.074 86.7146 238.023 86.6168C239.925 86.4208 242.392 86.2361 244.694 86.2727L244.721 84.6254ZM192.366 130.655C192.366 130.891 192.306 130.951 192.292 130.965C192.259 130.998 192.162 131.067 191.901 131.114C191.346 131.213 190.538 131.134 189.494 131.029C188.522 130.93 187.376 130.815 186.367 130.954C185.334 131.096 184.273 131.53 183.708 132.666L185.183 133.4C185.408 132.948 185.836 132.689 186.591 132.586C187.369 132.479 188.311 132.565 189.328 132.668C190.272 132.763 191.354 132.885 192.191 132.736C192.627 132.658 193.101 132.491 193.467 132.12C193.851 131.729 194.014 131.216 194.014 130.655H192.366ZM183.709 132.664C182.9 134.28 182.093 136.086 181.491 137.483C181.19 138.183 180.939 138.783 180.763 139.208C180.675 139.42 180.605 139.589 180.558 139.705C180.534 139.763 180.516 139.808 180.504 139.838C180.498 139.854 180.493 139.865 180.49 139.873C180.488 139.877 180.487 139.88 180.486 139.882C180.486 139.883 180.485 139.884 180.485 139.885C180.485 139.885 180.485 139.885 180.485 139.885C180.485 139.885 180.485 139.885 180.485 139.885C180.485 139.885 180.485 139.886 181.249 140.193C182.013 140.501 182.013 140.501 182.013 140.501C182.013 140.501 182.013 140.501 182.013 140.501C182.013 140.501 182.013 140.5 182.013 140.5C182.013 140.5 182.014 140.499 182.014 140.498C182.015 140.496 182.016 140.494 182.017 140.49C182.02 140.483 182.025 140.472 182.031 140.457C182.043 140.428 182.06 140.384 182.083 140.327C182.13 140.214 182.198 140.048 182.285 139.838C182.458 139.419 182.706 138.827 183.004 138.135C183.601 136.75 184.393 134.976 185.182 133.403L183.709 132.664ZM181.366 139.378L175.795 138.579L175.561 140.21L181.132 141.009L181.366 139.378ZM176.348 138.916L168.397 127.78L167.056 128.737L175.008 139.873L176.348 138.916ZM167.727 128.258C168.393 128.743 168.393 128.743 168.393 128.743C168.393 128.743 168.393 128.743 168.393 128.743C168.393 128.742 168.394 128.742 168.394 128.741C168.395 128.74 168.396 128.739 168.398 128.736C168.401 128.732 168.405 128.726 168.412 128.717C168.424 128.7 168.442 128.676 168.466 128.643C168.513 128.578 168.582 128.482 168.671 128.359C168.849 128.113 169.104 127.758 169.415 127.322C170.038 126.45 170.885 125.255 171.782 123.959C173.561 121.389 175.587 118.355 176.415 116.697L174.941 115.961C174.176 117.493 172.226 120.423 170.428 123.021C169.536 124.308 168.694 125.497 168.075 126.364C167.765 126.798 167.511 127.15 167.335 127.395C167.247 127.517 167.178 127.612 167.132 127.676C167.108 127.708 167.09 127.733 167.079 127.749C167.073 127.757 167.068 127.764 167.065 127.768C167.064 127.77 167.062 127.771 167.062 127.772C167.061 127.773 167.061 127.773 167.061 127.773C167.061 127.774 167.061 127.774 167.061 127.774C167.061 127.774 167.061 127.774 167.727 128.258ZM176.414 116.699C176.723 116.083 177.537 115.233 178.736 114.329C179.906 113.446 181.348 112.58 182.791 111.907C184.244 111.228 185.641 110.772 186.73 110.661C187.879 110.544 188.323 110.827 188.475 111.131L189.948 110.392C189.301 109.104 187.853 108.89 186.563 109.022C185.213 109.16 183.626 109.699 182.094 110.414C180.552 111.133 179.01 112.058 177.743 113.014C176.505 113.948 175.429 114.988 174.941 115.96L176.414 116.699ZM188.474 111.128C188.936 112.056 189.768 112.982 190.671 113.86C191.58 114.744 192.653 115.665 193.626 116.54C194.619 117.433 195.519 118.288 196.169 119.1C196.837 119.933 197.132 120.59 197.132 121.093H198.78C198.78 120.007 198.18 118.975 197.455 118.07C196.713 117.143 195.723 116.21 194.728 115.315C193.712 114.401 192.698 113.534 191.819 112.679C190.934 111.818 190.278 111.056 189.949 110.395L188.474 111.128ZM197.132 121.096C197.135 121.692 196.912 122.344 196.498 123.084C196.083 123.824 195.522 124.576 194.918 125.382C194.329 126.168 193.697 127.009 193.218 127.861C192.739 128.713 192.366 129.655 192.366 130.655H194.014C194.014 130.06 194.238 129.408 194.654 128.668C195.071 127.928 195.632 127.176 196.237 126.37C196.826 125.584 197.457 124.742 197.935 123.889C198.413 123.035 198.783 122.092 198.78 121.09L197.132 121.096Z" fill="#005572"/>
</g>
<path d="M112.039 131.608C110.479 124.744 104.492 121.654 99.2332 121.654C99.2332 121.654 99.2332 121.654 99.2183 121.654C93.974 121.654 87.9721 124.73 86.4121 131.593C84.674 139.259 89.3686 145.751 93.6175 149.837C95.1923 151.352 97.2127 152.11 99.2332 152.11C101.254 152.11 103.274 151.352 104.834 149.837C109.083 145.751 113.778 139.274 112.039 131.608ZM99.2332 139.051C96.6482 139.051 94.5534 136.956 94.5534 134.371C94.5534 131.786 96.6482 129.692 99.2332 129.692C101.818 129.692 103.913 131.786 103.913 134.371C103.913 136.956 101.818 139.051 99.2332 139.051Z" fill="#F47521"/>
<path d="M174.119 151.818C173.263 148.054 169.98 146.359 167.096 146.359C167.096 146.359 167.096 146.359 167.088 146.359C164.212 146.359 160.921 148.046 160.065 151.81C159.112 156.014 161.686 159.574 164.017 161.814C164.88 162.645 165.988 163.061 167.096 163.061C168.204 163.061 169.312 162.645 170.168 161.814C172.498 159.574 175.072 156.022 174.119 151.818ZM167.096 155.9C165.679 155.9 164.53 154.751 164.53 153.333C164.53 151.916 165.679 150.767 167.096 150.767C168.514 150.767 169.662 151.916 169.662 153.333C169.662 154.751 168.514 155.9 167.096 155.9Z" fill="#F47521"/>
<path d="M152.987 106.597C152.534 104.604 150.796 103.707 149.269 103.707C149.269 103.707 149.269 103.707 149.265 103.707C147.742 103.707 146 104.6 145.547 106.593C145.042 108.818 146.405 110.703 147.639 111.889C148.096 112.329 148.682 112.549 149.269 112.549C149.856 112.549 150.442 112.329 150.895 111.889C152.129 110.703 153.492 108.822 152.987 106.597ZM149.269 108.758C148.519 108.758 147.91 108.15 147.91 107.399C147.91 106.649 148.519 106.04 149.269 106.04C150.02 106.04 150.628 106.649 150.628 107.399C150.628 108.15 150.02 108.758 149.269 108.758Z" fill="#F47521"/>
<path d="M64.4243 130.175C63.9714 128.182 62.2332 127.285 60.7064 127.285C60.7064 127.285 60.7064 127.285 60.7021 127.285C59.1795 127.285 57.437 128.178 56.9842 130.171C56.4795 132.396 57.8425 134.281 59.076 135.467C59.5332 135.907 60.1198 136.127 60.7064 136.127C61.293 136.127 61.8796 135.907 62.3325 135.467C63.566 134.281 64.929 132.401 64.4243 130.175ZM60.7064 132.336C59.9559 132.336 59.3478 131.728 59.3478 130.977C59.3478 130.227 59.9559 129.619 60.7064 129.619C61.4569 129.619 62.065 130.227 62.065 130.977C62.065 131.728 61.4569 132.336 60.7064 132.336Z" fill="#F47521"/>
<path d="M202.054 63.2878C201.123 59.1918 197.55 57.3477 194.412 57.3477C194.412 57.3477 194.412 57.3477 194.403 57.3477C191.273 57.3477 187.691 59.1829 186.761 63.2789C185.723 67.8537 188.525 71.7281 191.061 74.1663C192 75.0706 193.206 75.5227 194.412 75.5227C195.618 75.5227 196.823 75.0706 197.754 74.1663C200.29 71.7281 203.092 67.8626 202.054 63.2878ZM194.412 67.7296C192.869 67.7296 191.619 66.4795 191.619 64.9369C191.619 63.3942 192.869 62.1441 194.412 62.1441C195.954 62.1441 197.205 63.3942 197.205 64.9369C197.205 66.4795 195.954 67.7296 194.412 67.7296Z" fill="#F47521"/>
<path d="M125.81 63.2554C124.955 59.4915 121.672 57.7969 118.788 57.7969C118.788 57.7969 118.788 57.7969 118.779 57.7969C115.903 57.7969 112.612 59.4833 111.757 63.2472C110.803 67.4511 113.378 71.0114 115.708 73.2518C116.572 74.0828 117.68 74.4983 118.788 74.4983C119.896 74.4983 121.004 74.0828 121.859 73.2518C124.189 71.0114 126.763 67.4593 125.81 63.2554ZM118.788 67.3371C117.37 67.3371 116.221 66.1883 116.221 64.7707C116.221 63.3532 117.37 62.2044 118.788 62.2044C120.205 62.2044 121.354 63.3532 121.354 64.7707C121.354 66.1883 120.205 67.3371 118.788 67.3371Z" fill="#F47521"/>
<path d="M78.0892 171.637C77.0577 167.098 73.0984 165.055 69.6206 165.055C69.6206 165.055 69.6206 165.055 69.6108 165.055C66.1428 165.055 62.1738 167.088 61.1422 171.627C59.9927 176.697 63.0972 180.99 65.907 183.692C66.9484 184.694 68.2845 185.195 69.6206 185.195C70.9567 185.195 72.2929 184.694 73.3244 183.692C76.1342 180.99 79.2387 176.706 78.0892 171.637ZM69.6206 176.559C67.9112 176.559 66.5259 175.174 66.5259 173.464C66.5259 171.755 67.9112 170.37 69.6206 170.37C71.3301 170.37 72.7153 171.755 72.7153 173.464C72.7153 175.174 71.3301 176.559 69.6206 176.559Z" fill="#F47521"/>
<defs>
<filter id="filter0_d_4559_28844" x="0.693287" y="0.0780277" width="271.298" height="245.002" filterUnits="userSpaceOnUse" color-interpolation-filters="sRGB">
<feFlood flood-opacity="0" result="BackgroundImageFix"/>
<feColorMatrix in="SourceAlpha" type="matrix" values="0 0 0 0 0 0 0 0 0 0 0 0 0 0 0 0 0 0 127 0" result="hardAlpha"/>
<feOffset dy="13.1798"/>
<feGaussianBlur stdDeviation="13.1798"/>
<feColorMatrix type="matrix" values="0 0 0 0 0 0 0 0 0 0 0 0 0 0 0 0 0 0 0.01 0"/>
<feBlend mode="normal" in2="BackgroundImageFix" result="effect1_dropShadow_4559_28844"/>
<feBlend mode="normal" in="SourceGraphic" in2="effect1_dropShadow_4559_28844" result="shape"/>
</filter>
</defs>
</svg>
