<svg width="259" height="247" viewBox="0 0 259 247" fill="none" xmlns="http://www.w3.org/2000/svg">
<rect x="0.387207" width="240.5" height="240.5" rx="120.25" fill="#ECECED"/>
<mask id="mask0_4559_28641" style="mask-type:alpha" maskUnits="userSpaceOnUse" x="0" y="0" width="241" height="241">
<rect x="0.387207" width="240.5" height="240.5" rx="120.25" fill="#ECECED"/>
</mask>
<g mask="url(#mask0_4559_28641)">
<path d="M158.037 137.07C158.037 137.07 181.629 144.136 187.26 109.689L168.238 99.8281L154.671 118.775L158.037 137.076V137.07Z" fill="#D85A4C"/>
<path d="M195.829 123.176L147.353 66.5452C146.85 65.8787 146.299 65.2326 145.7 64.6205C137.764 56.4595 124.72 56.2759 116.559 64.2057C108.398 72.1423 108.214 85.1864 116.144 93.3474C116.409 93.6194 116.674 93.8778 116.953 94.1295L171.326 146.993C177.902 153.753 188.723 153.909 195.483 147.333C202.249 140.756 202.399 129.936 195.823 123.176H195.829Z" fill="#FFA08A"/>
<path d="M187.172 109.642L154.351 68.3607C153.27 67.0617 152.807 66.5245 151.814 65.3003L150.971 64.3278L150.706 64.049C140.783 54.6366 125.114 54.6638 115.212 64.287C105.106 74.1142 104.827 90.2391 114.552 100.393L114.58 100.42C114.614 100.461 114.648 100.495 114.688 100.536C115.953 101.835 117.32 102.97 118.762 103.943L158.003 136.981C157.663 124.277 169.252 110.716 187.179 109.642H187.172Z" fill="#FA82A3"/>
<path d="M99.8036 287.902C116.347 271.359 116.347 244.536 99.8035 227.992C83.2599 211.449 56.4375 211.449 39.8939 227.992C23.3503 244.536 23.3503 271.359 39.8939 287.902C56.4375 304.446 83.26 304.446 99.8036 287.902Z" fill="#3B3348"/>
<path d="M101.011 4.35191C113.356 -7.99271 113.356 -28.0073 101.011 -40.352C88.6667 -52.6966 68.6521 -52.6965 56.3075 -40.3519C43.9629 -28.0073 43.9629 -7.99271 56.3075 4.35191C68.6521 16.6965 88.6667 16.6965 101.011 4.35191Z" fill="#87554A"/>
<path d="M94.1249 13.5619C101.353 -2.3292 94.3311 -21.0714 78.44 -28.3C62.5489 -35.5286 43.8067 -28.5063 36.5781 -12.6152C29.3496 3.27594 36.3719 22.0181 52.263 29.2467C68.1541 36.4753 86.8963 29.453 94.1249 13.5619Z" fill="#87554A"/>
<path d="M123.35 0.0283051C131.53 -8.15187 131.53 -21.4146 123.35 -29.5947C115.17 -37.7749 101.907 -37.7749 93.7268 -29.5947C85.5466 -21.4146 85.5466 -8.15184 93.7268 0.0283321C101.907 8.20851 115.17 8.20848 123.35 0.0283051Z" fill="#87554A"/>
<path d="M106.301 38.6514C124.789 36.3879 137.942 19.5655 135.678 1.07752C133.415 -17.4105 116.592 -30.5631 98.1043 -28.2996C79.6163 -26.0361 66.4638 -9.21366 68.7273 9.27435C70.9908 27.7624 87.8131 40.9149 106.301 38.6514Z" fill="#87554A"/>
<path d="M29.5552 283.684C29.596 270.014 36.0976 257.759 38.0359 244.178L48.7881 206.576L58.2752 193.409C69.1158 187.73 81.9218 187.411 93.0276 192.545C104.133 197.68 112.315 207.705 115.232 219.749L89.4096 401.434V401.876C89.4096 417.062 77.168 429.379 62.0633 429.379C46.9586 429.379 34.7171 417.069 34.7171 401.876L29.562 283.691L29.5552 283.684Z" fill="#3B3348"/>
<path d="M53.6098 65.43L70.8976 57.541L72.625 55.3784C72.7474 55.2016 72.8359 55.0043 72.8427 54.7595L71.8565 19.2386C71.9925 11.3632 77.9297 4.95679 85.4378 4.60315C92.2115 4.28351 98.2711 9.01691 99.9305 15.9198C104.093 33.194 106.636 46.6053 108.636 53.2565L110.839 53.8346L120.435 54.8139L116.79 60.445L116.028 61.8596C120.877 66.967 128.65 75.2641 128.664 75.9646C128.684 76.9779 124.169 89.3419 123.434 90.3688C122.7 91.3957 109.962 100.631 109.533 100.638C109.22 100.638 92.1979 91.6133 82.7379 86.5807C78.8342 84.5064 76.0595 80.6708 75.1958 76.1686L70.8092 78.4537L66.9191 72.9994L53.603 65.4436L53.6098 65.43Z" fill="#FFA08A"/>
<path d="M102.562 27.1892L104.922 37.7713C104.922 37.7713 88.4575 42.2735 78.4942 22.7891L102.562 27.1892Z" fill="#3B3348"/>
<path d="M100.604 185.642C109.799 179.46 121.353 177.909 131.847 181.459C142.348 185.009 150.59 193.252 154.14 203.746L178.113 392.191C178.222 392.85 178.304 393.51 178.365 394.183L178.691 396.747H178.487C178.487 412.178 165.974 424.692 150.543 424.692C135.111 424.692 122.598 412.178 122.598 396.747L122.394 395.727L74.8965 202.93L100.597 185.642H100.604Z" fill="#3B3348"/>
<path d="M51.7329 171.312C53.3515 163.906 54.5009 143.551 49.7743 119.686L44.32 64.7288L58.3365 64.586L68.1842 65.028C70.9725 73.9303 83.4861 74.454 92.8441 71.8357C110.315 66.9391 117.531 63.8991 118.565 54.3711L130.48 57.105C130.48 57.105 126.93 71.2032 134.561 75.9502C144.388 82.0574 155.568 95.6047 157.262 111.349C158.683 124.576 148.257 123.393 149.774 147.346C151.202 169.897 149.25 194.108 149.25 194.108C149.25 194.108 157.894 204.874 160.139 216.272C160.764 219.462 164.423 227.038 161.689 228.799C152.848 234.485 140.13 246.488 111.703 245.176C97.3803 244.516 79.324 247.583 67.0008 245.992C54.7933 244.414 47.7408 247.74 41.0692 244.367C36.9546 242.286 30.5482 239.014 32.058 234.587C34.7716 226.623 30.0586 225.29 37.4579 213.647C43.2251 204.582 50.3728 177.535 51.7329 171.319V171.312Z" fill="#FA82A3"/>
<path d="M148.645 151.027C149.393 151.027 149.999 150.421 149.999 149.673C150.019 136.14 152.331 131.046 154.365 126.557C155.997 122.953 157.412 119.838 157.146 113.547C156.446 96.9394 145.544 81.8075 135.703 74.7754C129.011 69.9876 130.201 61.9761 130.256 61.6429C130.371 60.9084 129.875 60.2147 129.134 60.0923C128.399 59.9631 127.705 60.4732 127.583 61.2077C127.515 61.6157 126.046 71.1981 134.132 76.9788C143.449 83.6437 153.78 97.9663 154.446 113.663C154.684 119.307 153.46 122.014 151.903 125.442C149.863 129.951 147.319 135.555 147.292 149.673C147.292 150.421 147.897 151.027 148.638 151.027H148.645Z" fill="#EC7495"/>
<path d="M102.807 -4.16382C102.304 0.54918 105.711 4.77929 110.424 5.28935C115.137 5.79262 119.367 2.38538 119.877 -2.32762C120.381 -7.04061 116.973 -11.2707 112.26 -11.7808C107.547 -12.284 103.317 -8.87681 102.807 -4.16382Z" fill="#EF9789"/>
<path d="M62.757 -7.42153C60.6216 12.505 77.2905 28.9699 94.4558 31.119C103.678 32.2751 112.866 18.2177 115.008 -1.70198C117.15 -21.6217 114.974 -38.311 97.7746 -40.1541C80.5753 -41.9971 64.8993 -27.348 62.757 -7.42153Z" fill="#FFA08A"/>
<path d="M72.0163 1.54816C75.4009 -1.41693 75.741 -6.56441 72.776 -9.94902C69.8109 -13.3336 64.6634 -13.6737 61.2788 -10.7086C57.8941 -7.74351 57.5541 -2.59606 60.5192 0.78855C63.4843 4.17316 68.6317 4.51324 72.0163 1.54816Z" fill="#FFA08A"/>
<path d="M98.1692 -6.38706C98.074 -5.59816 98.0264 -4.87045 97.9856 -4.11555C97.9447 -3.36746 97.9311 -2.6126 97.9311 -1.8577C97.9311 -0.347914 97.9991 1.16871 98.1215 2.68531V2.73968C98.2508 4.26307 99.5905 5.39884 101.114 5.26962C102.637 5.14041 103.773 3.80062 103.644 2.27723C103.61 1.88278 103.487 1.50874 103.317 1.1823C102.651 -0.0350526 102.032 -1.28642 101.468 -2.57179C101.189 -3.21107 100.917 -3.86395 100.665 -4.52363C100.413 -5.17651 100.175 -5.86337 99.9782 -6.49585L99.9578 -6.55708C99.8082 -7.03994 99.2981 -7.30518 98.8152 -7.15556C98.4616 -7.04674 98.2236 -6.7339 98.176 -6.38706H98.1692Z" fill="#F98C7A"/>
<path d="M96.6864 13.2745C96.9448 15.9336 99.3115 17.8786 101.971 17.6202C104.63 17.3618 106.575 14.9951 106.316 12.3359L96.6796 13.2745H96.6864Z" fill="white"/>
<path d="M89.5523 1.13428C91.3817 4.13346 91.4157 7.4591 89.6202 8.54723C87.8248 9.64217 84.8868 8.09157 83.0574 5.09239C81.228 2.09321 81.194 -1.23243 82.9894 -2.32056C84.7848 -3.4155 87.7228 -1.8649 89.5523 1.13428Z" fill="#FF8571"/>
<path d="M113.512 3.52947C112.546 6.90949 110.132 9.18776 108.112 8.60969C106.092 8.03161 105.235 4.82842 106.201 1.4416C107.167 -1.94523 109.581 -4.21674 111.601 -3.63866C113.621 -3.06059 114.478 0.142639 113.512 3.52947Z" fill="#FF8571"/>
<path d="M69.5783 146.258C69.5783 146.258 57.5612 167.762 29.5416 146.959L36.3289 126.631L59.2545 130.779L69.5851 146.258H69.5783Z" fill="#D85A4C"/>
<path d="M32.4456 163.417L27.8006 89.0155C27.6986 88.1858 27.6442 87.3425 27.6442 86.4856C27.6578 75.101 36.8934 65.8858 48.2712 65.8926C59.6559 65.9062 68.871 75.1418 68.8642 86.5196C68.8642 86.9004 68.8506 87.2745 68.8302 87.6486L66.6199 163.451C66.6131 172.884 58.9553 180.528 49.5157 180.521C40.083 180.514 32.4388 172.856 32.4456 163.417Z" fill="#FFA08A"/>
<path d="M29.5688 146.856L24.3797 94.3736C24.1417 93.0611 24.0056 91.7145 23.9784 90.3339L23.822 88.7357H23.992C24.5565 75.0796 35.8256 64.1778 49.6313 64.1914C63.7295 64.205 75.1549 75.5829 75.2501 89.6403V89.6811C75.2501 89.7355 75.2501 89.7831 75.2501 89.8375C75.2501 91.6465 75.0597 93.4147 74.6993 95.1149L69.5442 146.155C60.9411 136.797 43.1841 135.138 29.5688 146.849V146.856Z" fill="#FA82A3"/>
<path d="M138.253 180.488L49.6787 179.638C49.0191 179.665 48.3526 179.665 47.6793 179.617C38.2669 178.931 31.2008 170.742 31.8877 161.33C32.5746 151.918 40.7628 144.851 50.1752 145.538L138.824 154.536C139.266 154.522 139.709 154.536 140.157 154.563C147.319 155.087 152.691 161.316 152.168 168.471C151.644 175.632 145.414 181.005 138.26 180.481L138.253 180.488Z" fill="#FFA08A"/>
<path d="M143.558 155.303L175.298 165.803L171.754 184.975L139.063 180.459L143.558 155.303Z" fill="#FFA08A"/>
<path d="M139.627 180.561L154.875 187.946L156.698 186.069L150.699 181.084L139.627 180.561Z" fill="#FFA08A"/>
<path d="M174.801 168.468L155.949 164.986L174.319 171.087L174.801 168.468Z" fill="#F29788"/>
<path d="M173.727 174.48L152.692 170.277L173.244 177.099L173.727 174.48Z" fill="#F29788"/>
<path d="M172.639 180.371L153.794 176.889L172.156 182.989L172.639 180.371Z" fill="#F29788"/>
<path d="M240.504 56.5207L221.741 60.2952C219.197 60.8052 217.912 58.9214 218.871 56.0854L230.214 22.4076C231.173 19.5717 234.003 16.8581 236.546 16.348L255.31 12.5736C257.853 12.0635 259.139 13.9474 258.18 16.7833L246.836 50.4612C245.877 53.2971 243.048 56.0106 240.504 56.5207Z" fill="#3B2D6A"/>
</g>
<path d="M240.62 56.0305L221.856 59.8049C219.313 60.315 218.027 58.4312 218.986 55.5952L230.33 21.9174C231.289 19.0814 234.118 16.3679 236.662 15.8578L255.425 12.0833C257.969 11.5733 259.254 13.4571 258.295 16.2931L246.951 49.9709C245.992 52.8069 243.163 55.5204 240.62 56.0305Z" fill="#3B2D6A"/>
<path d="M216.348 64.3683L228.032 45.2035L230.752 28.3442H233.112V42.6668L234.928 42.2451L237.104 22.9443H239.145L239.736 34.601L240.926 41.8303L242.967 41.395L243.756 23.3863L245.993 22.9375L247.503 41.6943L249.013 41.7555L250.883 28.0994L252.637 28.2218L252.998 42.2996C252.998 42.2996 250.461 59.3221 241.246 70.0266L216.362 64.3615L216.348 64.3683Z" fill="#FFA08A"/>
<path d="M219.619 59.8258H219.612L171.768 126.447C171.387 126.923 171.02 127.42 170.687 127.95C166.048 135.356 168.293 145.115 175.699 149.754C183.105 154.392 192.864 152.148 197.503 144.741L239.301 73.6044C239.552 73.2847 239.79 72.9447 240.008 72.591C243.538 66.9599 241.83 59.5334 236.193 56.0037C230.561 52.4741 223.135 54.1811 219.605 59.819L219.619 59.8258Z" fill="#FFA08A"/>
<g filter="url(#filter0_d_4559_28641)">
<path d="M196.887 159.418L206.628 166.523L218.684 166.5L222.388 177.974L232.156 185.042L228.408 196.501L232.156 207.961L222.388 215.029L218.684 226.502L206.628 226.479L196.887 233.585L187.147 226.479L175.09 226.502L171.386 215.029L161.619 207.961L165.366 196.501L161.619 185.042L171.386 177.974L175.09 166.5L187.147 166.523L196.887 159.418Z" fill="#FFC200" stroke="#FFC200" stroke-width="6.06648" stroke-linecap="round" stroke-linejoin="round"/>
<path d="M183.908 196.503L193.179 205.774L211.721 187.232" stroke="white" stroke-width="6.06648" stroke-linecap="round" stroke-linejoin="round"/>
</g>
<defs>
<filter id="filter0_d_4559_28641" x="144.754" y="146.911" width="104.267" height="104.267" filterUnits="userSpaceOnUse" color-interpolation-filters="sRGB">
<feFlood flood-opacity="0" result="BackgroundImageFix"/>
<feColorMatrix in="SourceAlpha" type="matrix" values="0 0 0 0 0 0 0 0 0 0 0 0 0 0 0 0 0 0 127 0" result="hardAlpha"/>
<feOffset dy="2.54448"/>
<feGaussianBlur stdDeviation="3.81672"/>
<feColorMatrix type="matrix" values="0 0 0 0 0.38329 0 0 0 0 0.38329 0 0 0 0 0.38329 0 0 0 0.2 0"/>
<feBlend mode="normal" in2="BackgroundImageFix" result="effect1_dropShadow_4559_28641"/>
<feBlend mode="normal" in="SourceGraphic" in2="effect1_dropShadow_4559_28641" result="shape"/>
</filter>
</defs>
</svg>
