<svg width="259" height="268" viewBox="0 0 259 268" fill="none" xmlns="http://www.w3.org/2000/svg">
<rect width="240.5" height="240.5" rx="120.25" fill="#ECECED"/>
<mask id="mask0_4559_30021" style="mask-type:alpha" maskUnits="userSpaceOnUse" x="0" y="0" width="241" height="241">
<rect width="240.5" height="240.5" rx="120.25" fill="#ECECED"/>
</mask>
<g mask="url(#mask0_4559_30021)">
<path d="M157.65 137.07C157.65 137.07 181.242 144.136 186.873 109.689L167.851 99.8281L154.284 118.775L157.65 137.076V137.07Z" fill="#D85A4C"/>
<path d="M195.442 123.176L146.966 66.5452C146.463 65.8787 145.912 65.2326 145.313 64.6205C137.377 56.4595 124.333 56.2759 116.172 64.2057C108.01 72.1423 107.827 85.1864 115.757 93.3474C116.022 93.6194 116.287 93.8778 116.566 94.1295L170.939 146.993C177.515 153.753 188.335 153.909 195.095 147.333C201.862 140.756 202.012 129.936 195.435 123.176H195.442Z" fill="#FFA08A"/>
<path d="M186.785 109.642L153.964 68.3607C152.882 67.0617 152.42 66.5245 151.427 65.3003L150.584 64.3278L150.319 64.049C140.396 54.6366 124.727 54.6638 114.825 64.287C104.719 74.1142 104.44 90.2391 114.165 100.393L114.192 100.42C114.226 100.461 114.26 100.495 114.301 100.536C115.566 101.835 116.933 102.97 118.375 103.943L157.616 136.981C157.276 124.277 168.864 110.716 186.792 109.642H186.785Z" fill="#FA82A3"/>
<path d="M99.4164 287.902C115.96 271.359 115.96 244.536 99.4163 227.992C82.8727 211.449 56.0503 211.449 39.5067 227.992C22.9631 244.536 22.9631 271.359 39.5067 287.902C56.0503 304.446 82.8728 304.446 99.4164 287.902Z" fill="#3B3348"/>
<path d="M100.624 4.35191C112.969 -7.99271 112.969 -28.0073 100.624 -40.352C88.2795 -52.6966 68.2649 -52.6965 55.9203 -40.3519C43.5756 -28.0073 43.5756 -7.99271 55.9203 4.35191C68.2649 16.6965 88.2795 16.6965 100.624 4.35191Z" fill="#87554A"/>
<path d="M93.7377 13.5619C100.966 -2.3292 93.9439 -21.0714 78.0528 -28.3C62.1617 -35.5286 43.4195 -28.5063 36.1909 -12.6152C28.9623 3.27594 35.9847 22.0181 51.8758 29.2467C67.7669 36.4753 86.5091 29.453 93.7377 13.5619Z" fill="#87554A"/>
<path d="M122.963 0.0283051C131.143 -8.15187 131.143 -21.4146 122.963 -29.5947C114.783 -37.7749 101.52 -37.7749 93.3396 -29.5947C85.1594 -21.4146 85.1594 -8.15184 93.3396 0.0283321C101.52 8.20851 114.782 8.20848 122.963 0.0283051Z" fill="#87554A"/>
<path d="M105.914 38.6514C124.402 36.3879 137.555 19.5655 135.291 1.07752C133.028 -17.4105 116.205 -30.5631 97.7171 -28.2996C79.2291 -26.0361 66.0766 -9.21366 68.3401 9.27435C70.6035 27.7624 87.4259 40.9149 105.914 38.6514Z" fill="#87554A"/>
<path d="M29.168 283.684C29.2088 270.014 35.7104 257.759 37.6487 244.178L48.4009 206.576L57.888 193.409C68.7286 187.73 81.5346 187.411 92.6404 192.545C103.746 197.68 111.928 207.705 114.845 219.749L89.0224 401.434V401.876C89.0224 417.062 76.7808 429.379 61.6761 429.379C46.5714 429.379 34.3299 417.069 34.3299 401.876L29.1748 283.691L29.168 283.684Z" fill="#3B3348"/>
<path d="M53.2226 65.43L70.5104 57.541L72.2378 55.3784C72.3602 55.2015 72.4487 55.0043 72.4555 54.7595L71.4693 19.2386C71.6053 11.3632 77.5424 4.95679 85.0506 4.60315C91.8242 4.28351 97.8839 9.01691 99.5433 15.9198C103.705 33.194 106.249 46.6053 108.248 53.2565L110.452 53.8346L120.048 54.8139L116.403 60.445L115.641 61.8596C120.49 66.967 128.263 75.2641 128.277 75.9646C128.297 76.9779 123.781 89.3419 123.047 90.3688C122.312 91.3957 109.575 100.631 109.146 100.638C108.833 100.638 91.8107 91.6133 82.3507 86.5807C78.447 84.5064 75.6723 80.6708 74.8085 76.1686L70.422 78.4537L66.5319 72.9994L53.2158 65.4436L53.2226 65.43Z" fill="#FFA08A"/>
<path d="M102.175 27.1892L104.535 37.7713C104.535 37.7713 88.0703 42.2735 78.107 22.7891L102.175 27.1892Z" fill="#3B3348"/>
<path d="M100.217 185.642C109.411 179.46 120.966 177.909 131.46 181.459C141.96 185.009 150.203 193.252 153.753 203.746L177.726 392.191C177.835 392.85 177.916 393.51 177.978 394.183L178.304 396.747H178.1C178.1 412.178 165.586 424.692 150.155 424.692C134.724 424.692 122.211 412.178 122.211 396.747L122.007 395.727L74.5093 202.93L100.21 185.642H100.217Z" fill="#3B3348"/>
<path d="M51.3457 171.312C52.9643 163.906 54.1137 143.551 49.3871 119.686L43.9328 64.7288L57.9493 64.586L67.797 65.028C70.5853 73.9303 83.0989 74.454 92.4569 71.8357C109.928 66.9391 117.144 63.8991 118.178 54.3711L130.093 57.105C130.093 57.105 126.543 71.2032 134.173 75.9502C144.001 82.0574 155.181 95.6047 156.875 111.349C158.296 124.576 147.87 123.393 149.387 147.346C150.815 169.897 148.863 194.108 148.863 194.108C148.863 194.108 157.507 204.874 159.751 216.272C160.377 219.462 164.036 227.038 161.302 228.799C152.461 234.485 139.743 246.488 111.316 245.176C96.993 244.516 78.9368 247.583 66.6136 245.992C54.4061 244.414 47.3536 247.74 40.682 244.367C36.5674 242.286 30.161 239.014 31.6708 234.587C34.3844 226.623 29.6714 225.29 37.0707 213.647C42.8379 204.582 49.9856 177.535 51.3457 171.319V171.312Z" fill="#FA82A3"/>
<path d="M148.258 151.027C149.006 151.027 149.611 150.421 149.611 149.673C149.632 136.14 151.944 131.046 153.977 126.557C155.61 122.953 157.024 119.838 156.759 113.547C156.059 96.9394 145.157 81.8075 135.316 74.7754C128.624 69.9876 129.814 61.9761 129.868 61.6429C129.984 60.9084 129.488 60.2147 128.746 60.0923C128.012 59.9631 127.318 60.4732 127.196 61.2077C127.128 61.6157 125.659 71.1981 133.745 76.9788C143.062 83.6437 153.393 97.9663 154.059 113.663C154.297 119.307 153.073 122.014 151.516 125.442C149.475 129.951 146.932 135.555 146.905 149.673C146.905 150.421 147.51 151.027 148.251 151.027H148.258Z" fill="#EC7495"/>
<path d="M102.42 -4.16382C101.917 0.54918 105.324 4.77929 110.037 5.28935C114.75 5.79262 118.98 2.38538 119.49 -2.32762C119.993 -7.04061 116.586 -11.2707 111.873 -11.7808C107.16 -12.284 102.93 -8.87681 102.42 -4.16382Z" fill="#EF9789"/>
<path d="M62.3698 -7.42153C60.2344 12.505 76.9033 28.9699 94.0686 31.119C103.291 32.2751 112.479 18.2177 114.621 -1.70198C116.763 -21.6217 114.587 -38.311 97.3874 -40.1541C80.1881 -41.9971 64.5121 -27.348 62.3698 -7.42153Z" fill="#FFA08A"/>
<path d="M71.6291 1.54816C75.0137 -1.41693 75.3538 -6.56441 72.3888 -9.94902C69.4237 -13.3336 64.2762 -13.6737 60.8915 -10.7086C57.5069 -7.74351 57.1669 -2.59606 60.132 0.78855C63.0971 4.17316 68.2445 4.51324 71.6291 1.54816Z" fill="#FFA08A"/>
<path d="M97.782 -6.38706C97.6868 -5.59816 97.6391 -4.87045 97.5983 -4.11555C97.5575 -3.36746 97.5439 -2.6126 97.5439 -1.8577C97.5439 -0.347914 97.6119 1.16871 97.7343 2.68531V2.73968C97.8635 4.26307 99.2033 5.39884 100.727 5.26962C102.25 5.14041 103.386 3.80062 103.257 2.27723C103.223 1.88278 103.1 1.50874 102.93 1.1823C102.264 -0.0350528 101.645 -1.28642 101.08 -2.57179C100.802 -3.21107 100.529 -3.86395 100.278 -4.52363C100.026 -5.17651 99.7882 -5.86337 99.5909 -6.49585L99.5706 -6.55708C99.421 -7.03994 98.9109 -7.30518 98.428 -7.15556C98.0744 -7.04674 97.8364 -6.7339 97.7888 -6.38706H97.782Z" fill="#F98C7A"/>
<path d="M96.2992 13.2745C96.5576 15.9336 98.9243 17.8786 101.583 17.6202C104.243 17.3618 106.188 14.9951 105.929 12.3359L96.2924 13.2745H96.2992Z" fill="white"/>
<path d="M89.1651 1.13428C90.9945 4.13346 91.0285 7.4591 89.233 8.54723C87.4376 9.64217 84.4996 8.09157 82.6702 5.09239C80.8408 2.09321 80.8068 -1.23243 82.6022 -2.32056C84.3976 -3.4155 87.3356 -1.8649 89.1651 1.13428Z" fill="#FF8571"/>
<path d="M113.125 3.52947C112.159 6.90949 109.744 9.18776 107.725 8.60969C105.705 8.03161 104.848 4.82843 105.814 1.4416C106.779 -1.94523 109.194 -4.21674 111.214 -3.63866C113.233 -3.06059 114.09 0.142639 113.125 3.52947Z" fill="#FF8571"/>
<path d="M69.1911 146.258C69.1911 146.258 57.174 167.762 29.1544 146.959L35.9417 126.631L58.8673 130.779L69.1979 146.258H69.1911Z" fill="#D85A4C"/>
<path d="M32.0584 163.417L27.4134 89.0155C27.3114 88.1858 27.257 87.3425 27.257 86.4856C27.2706 75.101 36.5062 65.8858 47.884 65.8926C59.2687 65.9062 68.4838 75.1418 68.477 86.5196C68.477 86.9004 68.4634 87.2745 68.443 87.6486L66.2327 163.451C66.2259 172.884 58.5681 180.528 49.1285 180.521C39.6958 180.514 32.0516 172.856 32.0584 163.417Z" fill="#FFA08A"/>
<path d="M29.1816 146.856L23.9925 94.3736C23.7545 93.0611 23.6184 91.7145 23.5912 90.3339L23.4348 88.7357H23.6048C24.1693 75.0796 35.4384 64.1778 49.2441 64.1914C63.3423 64.205 74.7677 75.5829 74.8629 89.6403V89.6811C74.8629 89.7355 74.8629 89.7831 74.8629 89.8375C74.8629 91.6465 74.6725 93.4147 74.3121 95.1149L69.157 146.155C60.5539 136.797 42.7969 135.138 29.1816 146.849V146.856Z" fill="#FA82A3"/>
<path d="M137.866 180.488L49.2915 179.638C48.6319 179.665 47.9654 179.665 47.2921 179.617C37.8797 178.931 30.8136 170.742 31.5005 161.33C32.1874 151.918 40.3756 144.851 49.788 145.538L138.437 154.536C138.879 154.522 139.321 154.536 139.77 154.563C146.931 155.087 152.304 161.316 151.78 168.471C151.257 175.632 145.027 181.005 137.873 180.481L137.866 180.488Z" fill="#FFA08A"/>
<path d="M143.171 155.303L174.91 165.803L171.367 184.975L138.675 180.459L143.171 155.303Z" fill="#FFA08A"/>
<path d="M139.24 180.561L154.488 187.946L156.31 186.069L150.312 181.084L139.24 180.561Z" fill="#FFA08A"/>
<path d="M174.414 168.468L155.562 164.986L173.931 171.087L174.414 168.468Z" fill="#F29788"/>
<path d="M173.34 174.48L152.305 170.277L172.857 177.099L173.34 174.48Z" fill="#F29788"/>
<path d="M172.252 180.371L153.406 176.889L171.769 182.989L172.252 180.371Z" fill="#F29788"/>
<path d="M240.117 56.5207L221.353 60.2952C218.81 60.8052 217.525 58.9214 218.483 56.0854L229.827 22.4076C230.786 19.5717 233.615 16.8581 236.159 16.348L254.923 12.5736C257.466 12.0635 258.751 13.9474 257.792 16.7833L246.449 50.4612C245.49 53.2971 242.661 56.0107 240.117 56.5207Z" fill="#3B2D6A"/>
</g>
<path d="M240.232 56.0305L221.469 59.8049C218.925 60.315 217.64 58.4312 218.599 55.5952L229.943 21.9174C230.902 19.0814 233.731 16.3679 236.274 15.8578L255.038 12.0833C257.581 11.5733 258.867 13.4571 257.908 16.2931L246.564 49.9709C245.605 52.8069 242.776 55.5204 240.232 56.0305Z" fill="#3B2D6A"/>
<path d="M215.961 64.3683L227.645 45.2035L230.365 28.3442H232.725V42.6668L234.541 42.2451L236.717 22.9443H238.757L239.349 34.601L240.539 41.8303L242.579 41.395L243.368 23.3863L245.606 22.9375L247.116 41.6943L248.625 41.7555L250.496 28.0994L252.25 28.2218L252.611 42.2996C252.611 42.2996 250.074 59.3221 240.859 70.0266L215.975 64.3615L215.961 64.3683Z" fill="#FFA08A"/>
<path d="M219.232 59.8258H219.225L171.381 126.447C171 126.923 170.633 127.42 170.299 127.95C165.661 135.356 167.906 145.115 175.312 149.754C182.718 154.392 192.477 152.148 197.115 144.741L238.913 73.6044C239.165 73.2847 239.403 72.9447 239.621 72.591C243.15 66.9599 241.443 59.5334 235.805 56.0037C230.174 52.4741 222.748 54.1811 219.218 59.819L219.232 59.8258Z" fill="#FFA08A"/>
<g filter="url(#filter0_d_4559_30021)">
<path d="M196.498 159.418L206.239 166.523L218.295 166.5L221.999 177.974L231.767 185.042L228.019 196.501L231.767 207.961L221.999 215.029L218.295 226.502L206.239 226.479L196.498 233.585L186.758 226.479L174.701 226.502L170.997 215.029L161.23 207.961L164.978 196.501L161.23 185.042L170.997 177.974L174.701 166.5L186.758 166.523L196.498 159.418Z" fill="#FFC200" stroke="#FFC200" stroke-width="6.06648" stroke-linecap="round" stroke-linejoin="round"/>
<path d="M205.363 193.417V190.334C205.363 187.881 204.389 185.528 202.654 183.793C200.919 182.059 198.567 181.084 196.113 181.084C193.66 181.084 191.307 182.059 189.573 183.793C187.838 185.528 186.863 187.881 186.863 190.334V193.417C186.046 193.417 185.261 193.742 184.683 194.32C184.105 194.899 183.78 195.683 183.78 196.501V208.834C183.78 209.652 184.105 210.436 184.683 211.014C185.261 211.592 186.046 211.917 186.863 211.917H205.363C206.181 211.917 206.965 211.592 207.544 211.014C208.122 210.436 208.447 209.652 208.447 208.834V196.501C208.447 195.683 208.122 194.899 207.544 194.32C206.965 193.742 206.181 193.417 205.363 193.417ZM189.947 190.334C189.947 188.698 190.596 187.13 191.753 185.973C192.909 184.817 194.478 184.167 196.113 184.167C197.749 184.167 199.317 184.817 200.474 185.973C201.63 187.13 202.28 188.698 202.28 190.334V193.417H189.947V190.334ZM200.738 201.896C200.738 201.692 200.82 201.496 200.964 201.351C201.109 201.207 201.305 201.126 201.509 201.126H203.051C203.255 201.126 203.451 201.207 203.596 201.351C203.74 201.496 203.822 201.692 203.822 201.896V203.438C203.822 203.643 203.74 203.839 203.596 203.983C203.451 204.128 203.255 204.209 203.051 204.209H201.509C201.305 204.209 201.109 204.128 200.964 203.983C200.82 203.839 200.738 203.643 200.738 203.438V201.896ZM194.572 201.896C194.572 201.692 194.653 201.496 194.797 201.351C194.942 201.207 195.138 201.126 195.342 201.126H196.884C197.089 201.126 197.285 201.207 197.429 201.351C197.574 201.496 197.655 201.692 197.655 201.896V203.438C197.655 203.643 197.574 203.839 197.429 203.983C197.285 204.128 197.089 204.209 196.884 204.209H195.342C195.138 204.209 194.942 204.128 194.797 203.983C194.653 203.839 194.572 203.643 194.572 203.438V201.896ZM188.405 203.438V201.896C188.405 201.692 188.486 201.496 188.631 201.351C188.775 201.207 188.971 201.126 189.176 201.126H190.717C190.922 201.126 191.118 201.207 191.263 201.351C191.407 201.496 191.488 201.692 191.488 201.896V203.438C191.488 203.643 191.407 203.839 191.263 203.983C191.118 204.128 190.922 204.209 190.717 204.209H189.176C188.971 204.209 188.775 204.128 188.631 203.983C188.486 203.839 188.405 203.643 188.405 203.438Z" fill="white"/>
</g>
<defs>
<filter id="filter0_d_4559_30021" x="128.846" y="136.564" width="135.308" height="135.308" filterUnits="userSpaceOnUse" color-interpolation-filters="sRGB">
<feFlood flood-opacity="0" result="BackgroundImageFix"/>
<feColorMatrix in="SourceAlpha" type="matrix" values="0 0 0 0 0 0 0 0 0 0 0 0 0 0 0 0 0 0 127 0" result="hardAlpha"/>
<feOffset dy="7.71803"/>
<feGaussianBlur stdDeviation="11.577"/>
<feColorMatrix type="matrix" values="0 0 0 0 0.38329 0 0 0 0 0.38329 0 0 0 0 0.38329 0 0 0 0.2 0"/>
<feBlend mode="normal" in2="BackgroundImageFix" result="effect1_dropShadow_4559_30021"/>
<feBlend mode="normal" in="SourceGraphic" in2="effect1_dropShadow_4559_30021" result="shape"/>
</filter>
</defs>
</svg>
